<svg width="18" height="19" viewBox="0 0 18 19" fill="none" xmlns="http://www.w3.org/2000/svg">
<path d="M13.3847 14.4996C13.8014 14.4996 14.1556 14.3538 14.4472 14.0621C14.7389 13.7704 14.8847 13.4163 14.8847 12.9996C14.8847 12.5829 14.7389 12.2288 14.4472 11.9371C14.1556 11.6454 13.8014 11.4996 13.3847 11.4996C12.9681 11.4996 12.6139 11.6454 12.3222 11.9371C12.0306 12.2288 11.8847 12.5829 11.8847 12.9996C11.8847 13.4163 12.0306 13.7704 12.3222 14.0621C12.6139 14.3538 12.9681 14.4996 13.3847 14.4996ZM13.3847 17.4996C13.9078 17.4996 14.3844 17.3804 14.8145 17.1419C15.2447 16.9034 15.5963 16.5842 15.8694 16.1842C15.4963 15.9611 15.1014 15.7913 14.6847 15.6746C14.2681 15.5579 13.8347 15.4996 13.3847 15.4996C12.9347 15.4996 12.5014 15.5579 12.0847 15.6746C11.6681 15.7913 11.2732 15.9611 10.9001 16.1842C11.1732 16.5842 11.5248 16.9034 11.9549 17.1419C12.3851 17.3804 12.8617 17.4996 13.3847 17.4996ZM8.38474 18.9803C6.22192 18.3906 4.43122 17.1175 3.01264 15.1611C1.59406 13.2047 0.884766 11.0175 0.884766 8.59959V2.84576L8.38474 0.0380859L15.8847 2.84576V8.51116C15.6514 8.41628 15.4065 8.3307 15.1501 8.25444C14.8937 8.17815 14.6386 8.11821 14.3847 8.07461V3.88996L8.38474 1.64959L2.38474 3.88996V8.59959C2.38474 9.48549 2.50974 10.3506 2.75974 11.1948C3.00974 12.039 3.3543 12.8281 3.79342 13.5621C4.23252 14.2961 4.7572 14.9551 5.36747 15.539C5.97773 16.123 6.63992 16.5893 7.35402 16.9381L7.38287 16.9285C7.51492 17.2951 7.68607 17.6464 7.89632 17.9823C8.10657 18.3181 8.34566 18.6233 8.61359 18.8976C8.57129 18.9104 8.53315 18.9242 8.49917 18.939C8.4652 18.9537 8.42706 18.9675 8.38474 18.9803ZM13.3847 18.9996C12.136 18.9996 11.0739 18.5617 10.1982 17.6861C9.32258 16.8105 8.88477 15.7483 8.88477 14.4996C8.88477 13.2509 9.32258 12.1887 10.1982 11.3131C11.0739 10.4374 12.136 9.99961 13.3847 9.99961C14.6334 9.99961 15.6956 10.4374 16.5713 11.3131C17.4469 12.1887 17.8847 13.2509 17.8847 14.4996C17.8847 15.7483 17.4469 16.8105 16.5713 17.6861C15.6956 18.5617 14.6334 18.9996 13.3847 18.9996Z" fill="#1F1F1F"/>
</svg>
