<svg width="20" height="20" viewBox="0 0 20 20" fill="none" xmlns="http://www.w3.org/2000/svg">
<path d="M4.02308 15.2923C4.87308 14.6615 5.79903 14.1635 6.80095 13.7981C7.80287 13.4327 8.86921 13.25 9.99998 13.25C11.1307 13.25 12.1971 13.4327 13.199 13.7981C14.2009 14.1635 15.1269 14.6615 15.9769 15.2923C16.5987 14.609 17.0913 13.8179 17.4548 12.9192C17.8182 12.0205 18 11.0474 18 9.99998C18 7.78331 17.2208 5.89581 15.6625 4.33748C14.1041 2.77914 12.2166 1.99998 9.99998 1.99998C7.78331 1.99998 5.89581 2.77914 4.33748 4.33748C2.77914 5.89581 1.99998 7.78331 1.99998 9.99998C1.99998 11.0474 2.18171 12.0205 2.54518 12.9192C2.90864 13.8179 3.40128 14.609 4.02308 15.2923ZM9.99998 10.75C9.08716 10.75 8.31729 10.4365 7.69038 9.80958C7.06346 9.18266 6.75 8.41279 6.75 7.49998C6.75 6.58716 7.06346 5.81729 7.69038 5.19038C8.31729 4.56346 9.08716 4.25 9.99998 4.25C10.9128 4.25 11.6827 4.56346 12.3096 5.19038C12.9365 5.81729 13.25 6.58716 13.25 7.49998C13.25 8.41279 12.9365 9.18266 12.3096 9.80958C11.6827 10.4365 10.9128 10.75 9.99998 10.75ZM9.99998 19.5C8.68074 19.5 7.44325 19.2519 6.2875 18.7557C5.13173 18.2596 4.12628 17.5839 3.27115 16.7288C2.41603 15.8737 1.7404 14.8682 1.24425 13.7125C0.748083 12.5567 0.5 11.3192 0.5 9.99998C0.5 8.68074 0.748083 7.44325 1.24425 6.2875C1.7404 5.13173 2.41603 4.12628 3.27115 3.27115C4.12628 2.41603 5.13173 1.7404 6.2875 1.24425C7.44325 0.748084 8.68074 0.5 9.99998 0.5C11.3192 0.5 12.5567 0.748084 13.7125 1.24425C14.8682 1.7404 15.8737 2.41603 16.7288 3.27115C17.5839 4.12628 18.2596 5.13173 18.7557 6.2875C19.2519 7.44325 19.5 8.68074 19.5 9.99998C19.5 11.3192 19.2519 12.5567 18.7557 13.7125C18.2596 14.8682 17.5839 15.8737 16.7288 16.7288C15.8737 17.5839 14.8682 18.2596 13.7125 18.7557C12.5567 19.2519 11.3192 19.5 9.99998 19.5Z" fill="#1F1F1F"/>
</svg>
