<svg width="24" height="16" viewBox="0 0 24 16" fill="none" xmlns="http://www.w3.org/2000/svg">
<path d="M12.5966 7.64231C13.0223 7.17949 13.337 6.64809 13.5408 6.04811C13.7447 5.44811 13.8466 4.82952 13.8466 4.19236C13.8466 3.55519 13.7447 2.93661 13.5408 2.33661C13.337 1.73661 13.0223 1.2052 12.5966 0.742383C13.4748 0.843666 14.204 1.22283 14.7841 1.87988C15.3642 2.53692 15.6543 3.30774 15.6543 4.19236C15.6543 5.07696 15.3642 5.84778 14.7841 6.50483C14.204 7.16188 13.4748 7.54104 12.5966 7.64231ZM17.8466 15.3077V12.9616C17.8466 12.4164 17.7357 11.8977 17.5139 11.4056C17.2921 10.9134 16.9774 10.4911 16.5697 10.1385C17.3363 10.3936 18.0421 10.7379 18.687 11.1712C19.3318 11.6045 19.6543 12.2013 19.6543 12.9616V15.3077H17.8466ZM19.6543 8.75001V6.75001H17.6543V5.25006H19.6543V3.25006H21.1542V5.25006H23.1542V6.75001H21.1542V8.75001H19.6543ZM8.34663 7.69231C7.38415 7.69231 6.5602 7.34961 5.87478 6.66421C5.18938 5.97879 4.84668 5.15484 4.84668 4.19236C4.84668 3.22986 5.18938 2.40591 5.87478 1.72051C6.5602 1.03509 7.38415 0.692383 8.34663 0.692383C9.30913 0.692383 10.1331 1.03509 10.8185 1.72051C11.5039 2.40591 11.8466 3.22986 11.8466 4.19236C11.8466 5.15484 11.5039 5.97879 10.8185 6.66421C10.1331 7.34961 9.30913 7.69231 8.34663 7.69231ZM0.84668 15.3077V13.0846C0.84668 12.5949 0.979688 12.1414 1.2457 11.7241C1.51174 11.3068 1.86719 10.986 2.31205 10.7616C3.3005 10.277 4.29761 9.91351 5.30338 9.67121C6.30915 9.42891 7.32356 9.30776 8.34663 9.30776C9.3697 9.30776 10.3841 9.42891 11.3899 9.67121C12.3956 9.91351 13.3928 10.277 14.3812 10.7616C14.8261 10.986 15.1815 11.3068 15.4476 11.7241C15.7136 12.1414 15.8466 12.5949 15.8466 13.0846V15.3077H0.84668ZM8.34663 6.19236C8.89663 6.19236 9.36746 5.99653 9.75913 5.60486C10.1508 5.21319 10.3466 4.74236 10.3466 4.19236C10.3466 3.64236 10.1508 3.17153 9.75913 2.77986C9.36746 2.38819 8.89663 2.19236 8.34663 2.19236C7.79663 2.19236 7.3258 2.38819 6.93413 2.77986C6.54246 3.17153 6.34663 3.64236 6.34663 4.19236C6.34663 4.74236 6.54246 5.21319 6.93413 5.60486C7.3258 5.99653 7.79663 6.19236 8.34663 6.19236ZM2.34663 13.8077H14.3466V13.0846C14.3466 12.8821 14.288 12.6946 14.1707 12.5221C14.0534 12.3497 13.8941 12.209 13.6928 12.1C12.8312 11.6757 11.9528 11.3542 11.0573 11.1356C10.1619 10.917 9.25835 10.8077 8.34663 10.8077C7.43493 10.8077 6.53136 10.917 5.63593 11.1356C4.74051 11.3542 3.86203 11.6757 3.00048 12.1C2.7992 12.209 2.6399 12.3497 2.5226 12.5221C2.40529 12.6946 2.34663 12.8821 2.34663 13.0846V13.8077Z" fill="#1F1F1F"/>
</svg>
