<svg width="20" height="20" viewBox="0 0 20 20" fill="none" xmlns="http://www.w3.org/2000/svg">
<path d="M6.99998 12.25C6.64998 12.25 6.35414 12.1291 6.11248 11.8875C5.87081 11.6458 5.74998 11.35 5.74998 11C5.74998 10.65 5.87081 10.3541 6.11248 10.1125C6.35414 9.87081 6.64998 9.74998 6.99998 9.74998C7.34998 9.74998 7.64581 9.87081 7.88748 10.1125C8.12914 10.3541 8.24998 10.65 8.24998 11C8.24998 11.35 8.12914 11.6458 7.88748 11.8875C7.64581 12.1291 7.34998 12.25 6.99998 12.25ZM13 12.25C12.65 12.25 12.3541 12.1291 12.1125 11.8875C11.8708 11.6458 11.75 11.35 11.75 11C11.75 10.65 11.8708 10.3541 12.1125 10.1125C12.3541 9.87081 12.65 9.74998 13 9.74998C13.35 9.74998 13.6458 9.87081 13.8875 10.1125C14.1291 10.3541 14.25 10.65 14.25 11C14.25 11.35 14.1291 11.6458 13.8875 11.8875C13.6458 12.1291 13.35 12.25 13 12.25ZM9.99998 18C12.2333 18 14.125 17.225 15.675 15.675C17.225 14.125 18 12.2333 18 9.99998C18 9.59998 17.975 9.21248 17.925 8.83748C17.875 8.46248 17.7833 8.09998 17.65 7.74998C17.3 7.83331 16.95 7.89581 16.6 7.93748C16.25 7.97914 15.8833 7.99998 15.5 7.99998C13.9833 7.99998 12.55 7.67498 11.2 7.02498C9.84998 6.37498 8.69998 5.46664 7.74998 4.29998C7.21664 5.59998 6.45414 6.72914 5.46248 7.68748C4.47081 8.64581 3.31664 9.36664 1.99998 9.84998V9.99998C1.99998 12.2333 2.77498 14.125 4.32498 15.675C5.87498 17.225 7.76664 18 9.99998 18ZM10.0016 19.5C8.68772 19.5 7.45268 19.2506 6.29655 18.752C5.1404 18.2533 4.13472 17.5765 3.2795 16.7217C2.42427 15.8669 1.74721 14.8616 1.24833 13.706C0.749442 12.5504 0.5 11.3156 0.5 10.0017C0.5 8.68772 0.749334 7.45268 1.248 6.29655C1.74667 5.1404 2.42342 4.13472 3.27825 3.2795C4.1331 2.42427 5.13834 1.74721 6.29398 1.24833C7.44959 0.749443 8.68437 0.5 9.9983 0.5C11.3122 0.5 12.5473 0.749334 13.7034 1.248C14.8596 1.74667 15.8652 2.42342 16.7205 3.27825C17.5757 4.1331 18.2527 5.13834 18.7516 6.29398C19.2505 7.44959 19.5 8.68437 19.5 9.9983C19.5 11.3122 19.2506 12.5473 18.752 13.7034C18.2533 14.8596 17.5765 15.8652 16.7217 16.7205C15.8669 17.5757 14.8616 18.2527 13.706 18.7516C12.5504 19.2505 11.3156 19.5 10.0016 19.5ZM8.17878 2.22113C8.93648 3.61859 9.98745 4.68111 11.3317 5.40868C12.6759 6.13623 14.0654 6.5 15.5 6.5C15.7718 6.5 16.0368 6.4859 16.2952 6.4577C16.5535 6.4295 16.8154 6.38912 17.0808 6.33655C16.4128 5.00962 15.4452 3.95512 14.1779 3.17305C12.9106 2.391 11.5179 1.99998 9.99998 1.99998C9.66408 1.99998 9.35093 2.01888 9.06053 2.0567C8.77014 2.09453 8.47623 2.14934 8.17878 2.22113ZM2.28073 8.0904C3.22048 7.61988 4.1128 6.93238 4.9577 6.0279C5.80258 5.1234 6.3481 4.03908 6.59425 2.77495C5.50063 3.27112 4.57626 3.98427 3.82113 4.9144C3.06599 5.84453 2.55253 6.9032 2.28073 8.0904Z" fill="#1F1F1F"/>
</svg>
