<svg width="20" height="22" viewBox="0 0 20 22" fill="none" xmlns="http://www.w3.org/2000/svg">
<path d="M2.25 21.1921V19.6921H17.75V21.1921H2.25ZM2.25 2.30759V0.807617H17.75V2.30759H2.25ZM9.99998 12.4999C10.7628 12.4999 11.4118 12.2323 11.9471 11.697C12.4823 11.1618 12.75 10.5127 12.75 9.74992C12.75 8.9871 12.4823 8.33807 11.9471 7.80282C11.4118 7.26757 10.7628 6.99994 9.99998 6.99994C9.23716 6.99994 8.58813 7.26757 8.05288 7.80282C7.51763 8.33807 7.25 8.9871 7.25 9.74992C7.25 10.5127 7.51763 11.1618 8.05288 11.697C8.58813 12.2323 9.23716 12.4999 9.99998 12.4999ZM2.3077 18.4998C1.80257 18.4998 1.375 18.3248 1.025 17.9748C0.675 17.6248 0.5 17.1973 0.5 16.6921V5.30759C0.5 4.80246 0.675 4.37489 1.025 4.02489C1.375 3.67489 1.80257 3.49989 2.3077 3.49989H17.6923C18.1974 3.49989 18.625 3.67489 18.975 4.02489C19.325 4.37489 19.5 4.80246 19.5 5.30759V16.6921C19.5 17.1973 19.325 17.6248 18.975 17.9748C18.625 18.3248 18.1974 18.4998 17.6923 18.4998H2.3077ZM4.40388 16.9999C5.15388 16.1948 6.00131 15.5768 6.94618 15.146C7.89103 14.7153 8.90896 14.4999 9.99998 14.4999C11.091 14.4999 12.1089 14.7153 13.0538 15.146C13.9986 15.5768 14.8461 16.1948 15.5961 16.9999H17.6923C17.7692 16.9999 17.8397 16.9678 17.9038 16.9037C17.9679 16.8396 18 16.7691 18 16.6921V5.30759C18 5.23066 17.9679 5.16013 17.9038 5.09602C17.8397 5.03192 17.7692 4.99987 17.6923 4.99987H2.3077C2.23077 4.99987 2.16024 5.03192 2.09613 5.09602C2.03202 5.16013 1.99998 5.23066 1.99998 5.30759V16.6921C1.99998 16.7691 2.03202 16.8396 2.09613 16.9037C2.16024 16.9678 2.23077 16.9999 2.3077 16.9999H4.40388ZM6.69998 16.9999H13.3C12.8166 16.6665 12.2958 16.4165 11.7375 16.2499C11.1791 16.0832 10.6 15.9999 9.99998 15.9999C9.39998 15.9999 8.82081 16.0832 8.26248 16.2499C7.70414 16.4165 7.18331 16.6665 6.69998 16.9999ZM9.99998 10.9999C9.65254 10.9999 9.35734 10.8785 9.11438 10.6355C8.87143 10.3926 8.74995 10.0974 8.74995 9.74992C8.74995 9.40248 8.87143 9.10729 9.11438 8.86434C9.35734 8.62138 9.65254 8.49989 9.99998 8.49989C10.3474 8.49989 10.6426 8.62138 10.8856 8.86434C11.1285 9.10729 11.25 9.40248 11.25 9.74992C11.25 10.0974 11.1285 10.3926 10.8856 10.6355C10.6426 10.8785 10.3474 10.9999 9.99998 10.9999Z" fill="#1F1F1F"/>
</svg>
