<svg width="18" height="18" viewBox="0 0 18 18" fill="none" xmlns="http://www.w3.org/2000/svg">
<path d="M4.36538 13.6282H5.86535V8.87827H4.36538V13.6282ZM12.1346 13.6282H13.6346V3.87827H12.1346V13.6282ZM8.25 13.6282H9.74995V10.8783H8.25V13.6282ZM8.25 8.87827H9.74995V6.87827H8.25V8.87827ZM2.3077 17.3782C1.80257 17.3782 1.375 17.2032 1.025 16.8532C0.675 16.5032 0.5 16.0757 0.5 15.5705V2.186C0.5 1.68086 0.675 1.2533 1.025 0.903296C1.375 0.553296 1.80257 0.378296 2.3077 0.378296H15.6923C16.1974 0.378296 16.625 0.553296 16.975 0.903296C17.325 1.2533 17.5 1.68086 17.5 2.186V15.5705C17.5 16.0757 17.325 16.5032 16.975 16.8532C16.625 17.2032 16.1974 17.3782 15.6923 17.3782H2.3077ZM2.3077 15.8783H15.6923C15.7692 15.8783 15.8397 15.8462 15.9038 15.7821C15.9679 15.718 16 15.6475 16 15.5705V2.186C16 2.10906 15.9679 2.03854 15.9038 1.97442C15.8397 1.91032 15.7692 1.87827 15.6923 1.87827H2.3077C2.23077 1.87827 2.16024 1.91032 2.09612 1.97442C2.03202 2.03854 1.99997 2.10906 1.99997 2.186V15.5705C1.99997 15.6475 2.03202 15.718 2.09612 15.7821C2.16024 15.8462 2.23077 15.8783 2.3077 15.8783Z" fill="#1F1F1F"/>
</svg>
