<svg width="20" height="16" viewBox="0 0 20 16" fill="none" xmlns="http://www.w3.org/2000/svg">
<path d="M2.20019 5.09612H17.8002L16.8829 1.90382H3.14249L2.20019 5.09612ZM14.906 6.5961H5.10979L4.79634 8.9615H15.2137L14.906 6.5961ZM2.41369 15.5095L3.61944 6.5961H1.32714C1.0515 6.5961 0.83228 6.4852 0.669463 6.2634C0.50663 6.04161 0.460471 5.79803 0.530988 5.53265L1.83099 1.00385C1.88484 0.81923 1.98227 0.671471 2.12329 0.560571C2.2643 0.449671 2.43225 0.39743 2.62714 0.403847H17.3829C17.5777 0.403847 17.7457 0.459297 17.8867 0.570197C18.0277 0.681097 18.1252 0.828846 18.179 1.01345L19.479 5.53265C19.5495 5.79803 19.5034 6.04161 19.3405 6.2634C19.1777 6.4852 18.9585 6.5961 18.6829 6.5961H16.3963L17.5867 15.5095H16.0963L15.4117 10.4615H4.58864L3.90404 15.5095H2.41369Z" fill="#1F1F1F"/>
</svg>
