<svg width="114" height="99" viewBox="0 0 114 99" fill="none" xmlns="http://www.w3.org/2000/svg">
<path d="M14.8524 64.954C10.9259 64.954 7.60283 63.5942 4.88308 60.8744C2.16334 58.1546 0.803467 54.8314 0.803467 50.905C0.803467 46.9785 2.16334 43.6553 4.88308 40.9355C7.60283 38.2157 10.9259 36.8559 14.8524 36.8559V24.5358C14.8524 21.7422 15.8472 19.3507 17.8366 17.3613C19.826 15.3718 22.2175 14.3771 25.0111 14.3771H42.9509C42.9509 10.4506 44.3108 7.12749 47.0305 4.40775C49.7504 1.688 53.0735 0.328125 57 0.328125C60.9265 0.328125 64.2496 1.688 66.9695 4.40775C69.6892 7.12749 71.0491 10.4506 71.0491 14.3771H88.9888C91.7825 14.3771 94.174 15.3718 96.1634 17.3613C98.1528 19.3507 99.1476 21.7422 99.1476 24.5358V36.8559C103.074 36.8559 106.397 38.2157 109.117 40.9355C111.837 43.6553 113.197 46.9785 113.197 50.905C113.197 54.8314 111.837 58.1546 109.117 60.8744C106.397 63.5942 103.074 64.954 99.1476 64.954V88.5135C99.1476 91.3071 98.1528 93.6986 96.1634 95.688C94.174 97.6775 91.7825 98.6722 88.9888 98.6722H25.0111C22.2175 98.6722 19.826 97.6775 17.8366 95.688C15.8472 93.6986 14.8524 91.3071 14.8524 88.5135V64.954ZM40.1346 55.1196C42.0841 55.1196 43.7432 54.4373 45.1121 53.0726C46.481 51.708 47.1654 50.0509 47.1654 48.1014C47.1654 46.152 46.4831 44.4928 45.1184 43.1239C43.7538 41.7551 42.0967 41.0706 40.1472 41.0706C38.1978 41.0706 36.5386 41.753 35.1697 43.1176C33.8009 44.4823 33.1164 46.1393 33.1164 48.0888C33.1164 50.0383 33.7988 51.6974 35.1634 53.0663C36.5281 54.4352 38.1851 55.1196 40.1346 55.1196ZM73.8528 55.1196C75.8022 55.1196 77.4614 54.4373 78.8303 53.0726C80.1991 51.708 80.8836 50.0509 80.8836 48.1014C80.8836 46.152 80.2012 44.4928 78.8366 43.1239C77.4719 41.7551 75.8149 41.0706 73.8654 41.0706C71.9159 41.0706 70.2568 41.753 68.8879 43.1176C67.519 44.4823 66.8346 46.1393 66.8346 48.0888C66.8346 50.0383 67.5169 51.6974 68.8816 53.0663C70.2462 54.4352 71.9033 55.1196 73.8528 55.1196ZM35.9263 77.5984H78.0737V69.1691H35.9263V77.5984ZM25.0111 90.2428H88.9888C89.4932 90.2428 89.9075 90.0807 90.2318 89.7564C90.556 89.4322 90.7182 89.0179 90.7182 88.5135V24.5358C90.7182 24.0314 90.556 23.6171 90.2318 23.2929C89.9075 22.9686 89.4932 22.8065 88.9888 22.8065H25.0111C24.5068 22.8065 24.0925 22.9686 23.7682 23.2929C23.444 23.6171 23.2818 24.0314 23.2818 24.5358V88.5135C23.2818 89.0179 23.444 89.4322 23.7682 89.7564C24.0925 90.0807 24.5068 90.2428 25.0111 90.2428Z" fill="#D9E0EC"/>
</svg>
