<svg width="72" height="93" viewBox="0 0 72 93" fill="none" xmlns="http://www.w3.org/2000/svg">
<path d="M9.3436 92.2412C7.00816 92.2412 5.01343 91.4142 3.35942 89.7601C1.70534 88.1061 0.878296 86.1113 0.878296 83.7759V39.8288C0.878296 37.4934 1.70534 35.4987 3.35942 33.8447C5.01343 32.1906 7.00816 31.3635 9.3436 31.3635H14.927V21.9977C14.927 16.1501 16.9773 11.1761 21.0778 7.07558C25.1784 2.97507 30.1525 0.924805 36.0001 0.924805C41.8476 0.924805 46.8217 2.97507 50.9223 7.07558C55.0228 11.1761 57.0731 16.1501 57.0731 21.9977V31.3635H62.6565C64.9919 31.3635 66.9867 32.1906 68.6407 33.8447C70.2948 35.4987 71.1218 37.4934 71.1218 39.8288V83.7759C71.1218 86.1113 70.2948 88.1061 68.6407 89.7601C66.9867 91.4142 64.9919 92.2412 62.6565 92.2412H9.3436ZM9.3436 85.2169H62.6565C63.0768 85.2169 63.422 85.0818 63.6922 84.8116C63.9625 84.5414 64.0976 84.1962 64.0976 83.7759V39.8288C64.0976 39.4085 63.9625 39.0633 63.6922 38.7931C63.422 38.5229 63.0768 38.3878 62.6565 38.3878H9.3436C8.92331 38.3878 8.57806 38.5229 8.30786 38.7931C8.03766 39.0633 7.90255 39.4085 7.90255 39.8288V83.7759C7.90255 84.1962 8.03766 84.5414 8.30786 84.8116C8.57806 85.0818 8.92331 85.2169 9.3436 85.2169ZM36.0001 69.9974C38.2755 69.9974 40.2102 69.2004 41.8041 67.6064C43.398 66.0125 44.195 64.0778 44.195 61.8024C44.195 59.5269 43.398 57.5923 41.8041 55.9984C40.2102 54.4044 38.2755 53.6074 36.0001 53.6074C33.7246 53.6074 31.79 54.4044 30.196 55.9984C28.6021 57.5923 27.8051 59.5269 27.8051 61.8024C27.8051 64.0778 28.6021 66.0125 30.196 67.6064C31.79 69.2004 33.7246 69.9974 36.0001 69.9974ZM21.9513 31.3635H50.0488V21.9977C50.0488 18.0953 48.683 14.7782 45.9513 12.0465C43.2196 9.31479 39.9025 7.94894 36.0001 7.94894C32.0976 7.94894 28.7806 9.31479 26.0489 12.0465C23.3172 14.7782 21.9513 18.0953 21.9513 21.9977V31.3635Z" fill="#D9E0EC"/>
</svg>
