<svg width="81" height="90" viewBox="0 0 81 90" fill="none" xmlns="http://www.w3.org/2000/svg">
<path d="M59.4146 68.4146C61.3658 68.4146 63.0243 67.7316 64.3902 66.3658C65.756 64.9999 66.439 63.3414 66.439 61.3902C66.439 59.439 65.756 57.7804 64.3902 56.4146C63.0243 55.0487 61.3658 54.3658 59.4146 54.3658C57.4634 54.3658 55.8048 55.0487 54.439 56.4146C53.0731 57.7804 52.3902 59.439 52.3902 61.3902C52.3902 63.3414 53.0731 64.9999 54.439 66.3658C55.8048 67.7316 57.4634 68.4146 59.4146 68.4146ZM59.4146 82.4633C61.8641 82.4633 64.096 81.905 66.1102 80.7882C68.1245 79.6716 69.7711 78.1767 71.0499 76.3035C69.3028 75.2589 67.4536 74.4633 65.5024 73.917C63.5512 73.3707 61.5219 73.0975 59.4146 73.0975C57.3073 73.0975 55.278 73.3707 53.3268 73.917C51.3756 74.4633 49.5264 75.2589 47.7793 76.3035C49.0581 78.1767 50.7047 79.6716 52.719 80.7882C54.7332 81.905 56.965 82.4633 59.4146 82.4633ZM36 89.3974C25.8717 86.6358 17.486 80.6741 10.8429 71.5124C4.1998 62.3507 0.878242 52.1083 0.878242 40.7854V13.8407L36 0.692566L71.1218 13.8407V40.3713C70.0291 39.9269 68.8824 39.5262 67.6817 39.169C66.4809 38.8118 65.2862 38.5311 64.0975 38.3269V18.7306L36 8.23909L7.9025 18.7306V40.7854C7.9025 44.934 8.48786 48.985 9.65859 52.9385C10.8293 56.892 12.4429 60.5874 14.4992 64.0245C16.5555 67.4616 19.0125 70.5476 21.8704 73.2822C24.7282 76.0169 27.8291 78.2007 31.1732 79.8337L31.3083 79.7888C31.9267 81.5058 32.7282 83.1507 33.7127 84.7236C34.6973 86.2966 35.817 87.7254 37.0717 89.0102C36.8736 89.0703 36.695 89.1348 36.5358 89.2038C36.3768 89.2729 36.1982 89.3374 36 89.3974ZM59.4146 89.4876C53.567 89.4876 48.593 87.4373 44.4924 83.3368C40.3918 79.2362 38.3416 74.2621 38.3416 68.4146C38.3416 62.567 40.3918 57.5929 44.4924 53.4923C48.593 49.3918 53.567 47.3416 59.4146 47.3416C65.2621 47.3416 70.2362 49.3918 74.3368 53.4923C78.4373 57.5929 80.4876 62.567 80.4876 68.4146C80.4876 74.2621 78.4373 79.2362 74.3368 83.3368C70.2362 87.4373 65.2621 89.4876 59.4146 89.4876Z" fill="#D9E0EC"/>
</svg>
