<svg width="94" height="84" viewBox="0 0 94 84" fill="none" xmlns="http://www.w3.org/2000/svg">
<path d="M3.83325 83.0872C2.84159 83.0872 2.01053 82.7497 1.34009 82.0746C0.668863 81.4003 0.333252 80.5641 0.333252 79.5662C0.333252 78.5691 0.668863 77.74 1.34009 77.0789C2.01053 76.4178 2.84159 76.0872 3.83325 76.0872H90.1666C91.1583 76.0872 91.9897 76.4248 92.6609 77.0999C93.3314 77.7742 93.6666 78.6104 93.6666 79.6082C93.6666 80.6054 93.3314 81.4345 92.6609 82.0956C91.9897 82.7567 91.1583 83.0872 90.1666 83.0872H3.83325ZM10.8193 69.0872C9.19525 69.0872 7.81936 68.5202 6.69159 67.3862C5.56381 66.2515 4.99992 64.874 4.99992 63.2539V43.4206C4.99992 41.8005 5.56847 40.423 6.70559 39.2882C7.8427 38.1542 9.22325 37.5872 10.8473 37.5872C12.4713 37.5872 13.8471 38.1542 14.9749 39.2882C16.1027 40.423 16.6666 41.8005 16.6666 43.4206V63.2539C16.6666 64.874 16.098 66.2515 14.9609 67.3862C13.8238 68.5202 12.4433 69.0872 10.8193 69.0872ZM34.8526 69.0872C33.2286 69.0872 31.8527 68.5202 30.7249 67.3862C29.5971 66.2515 29.0333 64.874 29.0333 63.2539V20.0872C29.0333 18.4671 29.6018 17.0897 30.7389 15.9549C31.876 14.8209 33.2566 14.2539 34.8806 14.2539C36.5046 14.2539 37.8805 14.8209 39.0083 15.9549C40.136 17.0897 40.6999 18.4671 40.6999 20.0872V63.2539C40.6999 64.874 40.1314 66.2515 38.9943 67.3862C37.8571 68.5202 36.4766 69.0872 34.8526 69.0872ZM59.0026 69.0872C57.3786 69.0872 56.0027 68.5202 54.8749 67.3862C53.7471 66.2515 53.1833 64.874 53.1833 63.2539V34.0872C53.1833 32.4671 53.7518 31.0897 54.8889 29.9549C56.026 28.8209 57.4066 28.2539 59.0306 28.2539C60.6546 28.2539 62.0305 28.8209 63.1583 29.9549C64.286 31.0897 64.8499 32.4671 64.8499 34.0872V63.2539C64.8499 64.874 64.2814 66.2515 63.1443 67.3862C62.0071 68.5202 60.6266 69.0872 59.0026 69.0872ZM83.1526 69.0872C81.5286 69.0872 80.1527 68.5202 79.0249 67.3862C77.8971 66.2515 77.3333 64.874 77.3333 63.2539V6.08724C77.3333 4.46713 77.9018 3.08969 79.0389 1.95491C80.176 0.820908 81.5566 0.253906 83.1806 0.253906C84.8046 0.253906 86.1805 0.820908 87.3083 1.95491C88.436 3.08969 88.9999 4.46713 88.9999 6.08724V63.2539C88.9999 64.874 88.4314 66.2515 87.2943 67.3862C86.1572 68.5202 84.7766 69.0872 83.1526 69.0872Z" fill="#D9E0EC"/>
</svg>
