<svg width="24" height="25" viewBox="0 0 24 25" fill="none" xmlns="http://www.w3.org/2000/svg">
<path d="M19.0385 12.2307C18.9808 10.3128 18.2824 8.68425 16.9433 7.34515C15.6042 6.00605 13.9756 5.30765 12.0577 5.24995V3.75C13.2243 3.77563 14.3166 4.01473 15.3346 4.4673C16.3525 4.91987 17.2416 5.52628 18.0019 6.28653C18.7621 7.04678 19.3686 7.93588 19.8211 8.95383C20.2737 9.97176 20.5128 11.0641 20.5384 12.2307H19.0385ZM15.0385 12.2307C14.9808 11.4294 14.6699 10.7452 14.1058 10.1779C13.5417 9.61053 12.859 9.30124 12.0577 9.24995V7.75C13.2744 7.80128 14.3109 8.25673 15.1673 9.11633C16.0237 9.97594 16.4807 11.0141 16.5384 12.2307H15.0385ZM19.4404 21C17.5558 21 15.6625 20.5618 13.7606 19.6855C11.8587 18.8092 10.1096 17.573 8.51347 15.9769C6.92374 14.3807 5.69073 12.6333 4.81445 10.7346C3.93817 8.83588 3.50002 6.94423 3.50002 5.05963C3.50002 4.75963 3.60002 4.50802 3.80002 4.30482C4.00002 4.10161 4.25002 4 4.55002 4H7.81152C8.06409 4 8.28685 4.08238 8.4798 4.24713C8.67275 4.41188 8.7955 4.6154 8.84805 4.8577L9.42112 7.79998C9.46087 8.07306 9.45254 8.30768 9.39612 8.50383C9.33972 8.69998 9.23844 8.86472 9.09228 8.99805L6.78267 11.2461C7.15447 11.9269 7.57916 12.5708 8.05673 13.1779C8.53429 13.7849 9.05127 14.3647 9.60768 14.9173C10.1564 15.466 10.7397 15.9756 11.3577 16.4462C11.9756 16.9167 12.643 17.3545 13.3596 17.7596L15.6038 15.4962C15.7603 15.3333 15.9497 15.2192 16.1721 15.1539C16.3946 15.0885 16.6256 15.0724 16.8654 15.1058L19.6423 15.6712C19.8948 15.7378 20.1009 15.8667 20.2606 16.0577C20.4202 16.2487 20.5 16.4654 20.5 16.7077V19.95C20.5 20.25 20.3984 20.5 20.1952 20.7C19.992 20.9 19.7404 21 19.4404 21ZM6.07307 9.82693L7.8577 8.11923C7.88975 8.09358 7.91058 8.05832 7.9202 8.01345C7.92982 7.96857 7.92822 7.9269 7.9154 7.88845L7.48077 5.65383C7.46796 5.60254 7.44552 5.56408 7.41347 5.53845C7.38142 5.5128 7.33976 5.49998 7.28847 5.49998H5.15C5.11155 5.49998 5.0795 5.5128 5.05385 5.53845C5.0282 5.56408 5.01537 5.59613 5.01537 5.6346C5.06666 6.31793 5.17852 7.01217 5.35095 7.7173C5.5234 8.42243 5.76411 9.12564 6.07307 9.82693ZM14.773 18.4692C15.4359 18.7782 16.1272 19.0144 16.8471 19.1779C17.567 19.3413 18.2397 19.4384 18.8654 19.4692C18.9038 19.4692 18.9359 19.4564 18.9615 19.4308C18.9872 19.4051 19 19.373 19 19.3346V17.2308C19 17.1795 18.9872 17.1378 18.9615 17.1057C18.9359 17.0737 18.8974 17.0512 18.8461 17.0384L16.7461 16.6115C16.7077 16.5987 16.6741 16.5971 16.6452 16.6067C16.6164 16.6163 16.5859 16.6372 16.5538 16.6692L14.773 18.4692Z" fill="#1F1F1F"/>
</svg>
