<svg width="25" height="24" viewBox="0 0 25 24" fill="none" xmlns="http://www.w3.org/2000/svg">
<path d="M11.75 16.75H13.25V12.75H17.25V11.25H13.25V7.25003H11.75V11.25H7.75V12.75H11.75V16.75ZM12.5016 21.5C11.1877 21.5 9.95268 21.2506 8.79655 20.752C7.6404 20.2533 6.63472 19.5766 5.7795 18.7217C4.92427 17.8669 4.24721 16.8616 3.74833 15.706C3.24944 14.5504 3 13.3156 3 12.0017C3 10.6877 3.24933 9.45271 3.748 8.29658C4.24667 7.14043 4.92342 6.13475 5.77825 5.27953C6.6331 4.4243 7.63834 3.74724 8.79398 3.24836C9.94959 2.74947 11.1844 2.50003 12.4983 2.50003C13.8122 2.50003 15.0473 2.74936 16.2034 3.24803C17.3596 3.7467 18.3652 4.42345 19.2205 5.27828C20.0757 6.13313 20.7527 7.13837 21.2516 8.29401C21.7505 9.44962 22 10.6844 22 11.9983C22 13.3123 21.7506 14.5473 21.252 15.7034C20.7533 16.8596 20.0765 17.8653 19.2217 18.7205C18.3669 19.5757 17.3616 20.2528 16.206 20.7517C15.0504 21.2505 13.8156 21.5 12.5016 21.5ZM12.5 20C14.7333 20 16.625 19.225 18.175 17.675C19.725 16.125 20.5 14.2333 20.5 12C20.5 9.76667 19.725 7.87501 18.175 6.32501C16.625 4.77501 14.7333 4.00001 12.5 4.00001C10.2666 4.00001 8.37498 4.77501 6.82498 6.32501C5.27498 7.87501 4.49998 9.76667 4.49998 12C4.49998 14.2333 5.27498 16.125 6.82498 17.675C8.37498 19.225 10.2666 20 12.5 20Z" fill="#1F1F1F"/>
</svg>
