<svg width="10" height="15" viewBox="0 0 10 15" fill="none" xmlns="http://www.w3.org/2000/svg">
<path d="M5.76046 2.60536L5.76046 14.2337C5.76046 14.4508 5.68758 14.6328 5.54183 14.7797C5.39607 14.9266 5.21546 15 5 15C4.78454 15 4.60393 14.9266 4.45818 14.7797C4.31242 14.6328 4.23954 14.4508 4.23954 14.2337L4.23954 2.60536L1.27376 5.57471C1.13435 5.7152 0.960076 5.78863 0.75095 5.79502C0.541825 5.8014 0.361216 5.72797 0.209125 5.57471C0.0697081 5.43423 -4.25949e-07 5.25543 -4.35439e-07 5.03831C-4.44929e-07 4.8212 0.069708 4.6424 0.209125 4.50192L4.46768 0.210728C4.54373 0.1341 4.62611 0.0798214 4.71483 0.0478933C4.80355 0.0159643 4.89861 7.39549e-07 5 7.35117e-07C5.10139 7.30685e-07 5.19645 0.0159643 5.28517 0.0478933C5.37389 0.0798214 5.45627 0.1341 5.53232 0.210728L9.79087 4.50192C9.93029 4.6424 10 4.81801 10 5.02874C10 5.23946 9.93029 5.42146 9.79088 5.57471C9.63878 5.72797 9.45818 5.8046 9.24905 5.8046C9.03992 5.8046 8.85932 5.72797 8.70722 5.57471L5.76046 2.60536Z" fill="white"/>
</svg>
