<svg width="24" height="25" viewBox="0 0 24 25" fill="none" xmlns="http://www.w3.org/2000/svg">
<path d="M5 18.4999V19.5V5.49998V18.4999ZM5.30772 21C4.80901 21 4.38305 20.8233 4.02985 20.4701C3.67663 20.1169 3.50002 19.691 3.50002 19.1923V5.8077C3.50002 5.30898 3.67663 4.88302 4.02985 4.52982C4.38305 4.17661 4.80901 4 5.30772 4H18.6923C19.191 4 19.617 4.17661 19.9702 4.52982C20.3234 4.88302 20.5 5.30898 20.5 5.8077V8.52885H19V5.8077C19 5.71795 18.9712 5.64423 18.9135 5.58653C18.8558 5.52883 18.782 5.49998 18.6923 5.49998H5.30772C5.21797 5.49998 5.14425 5.52883 5.08655 5.58653C5.02885 5.64423 5 5.71795 5 5.8077V19.1923C5 19.282 5.02885 19.3557 5.08655 19.4134C5.14425 19.4711 5.21797 19.5 5.30772 19.5H18.6923C18.782 19.5 18.8558 19.4711 18.9135 19.4134C18.9712 19.3557 19 19.282 19 19.1923V16.4711H20.5V19.1923C20.5 19.691 20.3234 20.1169 19.9702 20.4701C19.617 20.8233 19.191 21 18.6923 21H5.30772ZM13.3077 17C12.809 17 12.383 16.8233 12.0299 16.4701C11.6766 16.1169 11.5 15.691 11.5 15.1923V9.8077C11.5 9.30898 11.6766 8.88303 12.0299 8.52983C12.383 8.17661 12.809 8 13.3077 8H19.6923C20.191 8 20.617 8.17661 20.9702 8.52983C21.3234 8.88303 21.5 9.30898 21.5 9.8077V15.1923C21.5 15.691 21.3234 16.1169 20.9702 16.4701C20.617 16.8233 20.191 17 19.6923 17H13.3077ZM19.6923 15.5C19.782 15.5 19.8558 15.4711 19.9135 15.4134C19.9712 15.3557 20 15.282 20 15.1923V9.8077C20 9.71795 19.9712 9.64423 19.9135 9.58653C19.8558 9.52883 19.782 9.49998 19.6923 9.49998H13.3077C13.218 9.49998 13.1442 9.52883 13.0865 9.58653C13.0288 9.64423 13 9.71795 13 9.8077V15.1923C13 15.282 13.0288 15.3557 13.0865 15.4134C13.1442 15.4711 13.218 15.5 13.3077 15.5H19.6923ZM16 14C16.4167 14 16.7708 13.8541 17.0625 13.5625C17.3542 13.2708 17.5 12.9166 17.5 12.5C17.5 12.0833 17.3542 11.7291 17.0625 11.4375C16.7708 11.1458 16.4167 11 16 11C15.5833 11 15.2292 11.1458 14.9375 11.4375C14.6458 11.7291 14.5 12.0833 14.5 12.5C14.5 12.9166 14.6458 13.2708 14.9375 13.5625C15.2292 13.8541 15.5833 14 16 14Z" fill="#1F1F1F"/>
</svg>
