<svg width="50" height="50" viewBox="0 0 50 50" fill="none" xmlns="http://www.w3.org/2000/svg">
<rect width="50" height="50" rx="25" fill="#1F1F1F"/>
<path d="M42.1105 30.2317L40.0781 30.5538V23.8057L41.7957 23.9125C42.3757 23.9125 43.3474 24.7267 43.3474 25.3067L43.5273 28.5451C43.5273 29.1251 42.6905 30.2317 42.1105 30.2317Z" fill="white"/>
<path d="M40.9416 30.7011H40.079C39.9971 30.7011 39.9307 30.6347 39.9307 30.5527V23.8046C39.9307 23.7227 39.9971 23.6562 40.079 23.6562H40.9416C42.4569 23.6562 43.6898 24.8891 43.6898 26.4044V27.953C43.6897 29.4683 42.4569 30.7011 40.9416 30.7011ZM40.2273 30.4044H40.9416C42.2933 30.4044 43.3931 29.3047 43.3931 27.953V26.4045C43.3931 25.0527 42.2933 23.9531 40.9416 23.9531H40.2273V30.4044Z" fill="#1F1F1F"/>
<path d="M7.00012 30L10.0001 31V24L7.80103 23.8594C7.58769 23.8594 6.26753 25.0401 6.10655 26.0031C6.00002 26.6403 6.0686 28.1653 6.0686 28.1653C6.0686 28.767 7.00012 30 7.00012 30Z" fill="white"/>
<path d="M9.61068 30.7011H8.74816C7.23281 30.7011 6 29.4683 6 27.953V26.4044C6 24.8891 7.23281 23.6562 8.74816 23.6562H9.61068C9.69258 23.6562 9.75906 23.7227 9.75906 23.8046V30.5527C9.75902 30.6347 9.69258 30.7011 9.61068 30.7011ZM8.74816 23.953C7.39644 23.953 6.29671 25.0527 6.29671 26.4044V27.953C6.29671 29.3047 7.39644 30.4044 8.74816 30.4044H9.46231V23.953H8.74816Z" fill="#1F1F1F"/>
<path d="M8.51953 26.9003C8.51953 19.6492 15.8285 12.1484 24.8445 12.1484C33.8605 12.1484 41.1694 19.6492 41.1694 26.9003C41.1694 34.1515 33.8605 38.4072 24.8445 38.4072C15.8285 38.4072 8.51953 34.1514 8.51953 26.9003Z" fill="white"/>
<path d="M24.8444 38.5554C20.3053 38.5554 16.1764 37.469 13.2185 35.4963C10.0473 33.3812 8.37109 30.4087 8.37109 26.9002C8.37109 23.305 10.1309 19.5861 13.1992 16.6971C16.4161 13.6681 20.5519 12 24.8444 12C29.1369 12 33.2726 13.6681 36.4896 16.6971C39.558 19.5861 41.3178 23.305 41.3178 26.9002C41.3178 30.4087 39.6415 33.3812 36.4702 35.4963C33.5123 37.469 29.3836 38.5554 24.8444 38.5554ZM24.8444 12.2968C15.5859 12.2968 8.66785 20.0067 8.66785 26.9003C8.66785 30.3049 10.2984 33.192 13.3832 35.2495C16.2929 37.19 20.3632 38.2588 24.8444 38.2588C29.3256 38.2588 33.3959 37.19 36.3056 35.2495C39.3905 33.192 41.021 30.3049 41.021 26.9003C41.021 20.0067 34.103 12.2968 24.8444 12.2968Z" fill="#1F1F1F"/>
<path d="M32.7722 22.7168H17.0517C15.4186 22.7168 14.0947 24.1434 14.0947 25.9032V27.982C14.0947 29.3242 14.8111 30.7466 16.0466 30.9787C20.4031 31.7972 29.4209 31.7972 33.7774 30.9787C35.0129 30.7466 35.7293 29.3242 35.7293 27.982V25.9032C35.7292 24.1434 34.4053 22.7168 32.7722 22.7168Z" fill="#1F1F1F"/>
<path d="M21.163 26.9025C21.163 27.4921 20.7195 27.9701 20.1723 27.9701C19.6252 27.9701 19.1816 27.4921 19.1816 26.9025C19.1816 26.3129 19.6252 25.835 20.1723 25.835C20.7195 25.835 21.163 26.3129 21.163 26.9025Z" fill="white"/>
<path d="M30.7124 27.9701C31.2595 27.9701 31.7031 27.4921 31.7031 26.9025C31.7031 26.3129 31.2595 25.835 30.7124 25.835C30.1652 25.835 29.7217 26.3129 29.7217 26.9025C29.7217 27.4921 30.1652 27.9701 30.7124 27.9701Z" fill="white"/>
</svg>
