<svg width="40" height="40" viewBox="0 0 40 40" fill="none" xmlns="http://www.w3.org/2000/svg">
<path d="M6.25 30C5.89583 30 5.59903 29.8794 5.35958 29.6383C5.11986 29.3975 5 29.0989 5 28.7425C5 28.3864 5.11986 28.0903 5.35958 27.8542C5.59903 27.6181 5.89583 27.5 6.25 27.5H33.75C34.1042 27.5 34.4011 27.6206 34.6408 27.8617C34.8803 28.1025 35 28.4011 35 28.7575C35 29.1136 34.8803 29.4097 34.6408 29.6458C34.4011 29.8819 34.1042 30 33.75 30H6.25ZM6.25 21.25C5.89583 21.25 5.59903 21.1294 5.35958 20.8883C5.11986 20.6475 5 20.3489 5 19.9925C5 19.6364 5.11986 19.3403 5.35958 19.1042C5.59903 18.8681 5.89583 18.75 6.25 18.75H33.75C34.1042 18.75 34.4011 18.8706 34.6408 19.1117C34.8803 19.3525 35 19.6511 35 20.0075C35 20.3636 34.8803 20.6597 34.6408 20.8958C34.4011 21.1319 34.1042 21.25 33.75 21.25H6.25ZM6.25 12.5C5.89583 12.5 5.59903 12.3794 5.35958 12.1383C5.11986 11.8975 5 11.5989 5 11.2425C5 10.8864 5.11986 10.5903 5.35958 10.3542C5.59903 10.1181 5.89583 10 6.25 10H33.75C34.1042 10 34.4011 10.1206 34.6408 10.3617C34.8803 10.6025 35 10.9011 35 11.2575C35 11.6136 34.8803 11.9097 34.6408 12.1458C34.4011 12.3819 34.1042 12.5 33.75 12.5H6.25Z" fill="#1F1F1F"/>
</svg>
