<svg width="16" height="17" viewBox="0 0 16 17" fill="none" xmlns="http://www.w3.org/2000/svg">
<g id="Icon | Call Id">
<path id="Vector" d="M11.8833 9.63334C12.0055 9.63334 12.1055 9.59445 12.1833 9.51668C12.261 9.4389 12.2999 9.3389 12.2999 9.21668C12.2999 9.09445 12.261 8.99445 12.1833 8.91668C12.1055 8.8389 12.0055 8.80001 11.8833 8.80001H9.88325C9.76103 8.80001 9.66103 8.8389 9.58325 8.91668C9.50547 8.99445 9.46659 9.09445 9.46659 9.21668C9.46659 9.3389 9.50547 9.4389 9.58325 9.51668C9.66103 9.59445 9.76103 9.63334 9.88325 9.63334H11.8833ZM11.8833 11.5167C12.0055 11.5167 12.1055 11.4778 12.1833 11.4C12.261 11.3222 12.2999 11.2222 12.2999 11.1C12.2999 10.9778 12.261 10.8778 12.1833 10.8C12.1055 10.7222 12.0055 10.6833 11.8833 10.6833H9.88325C9.76103 10.6833 9.66103 10.7222 9.58325 10.8C9.50547 10.8778 9.46659 10.9778 9.46659 11.1C9.46659 11.2222 9.50547 11.3222 9.58325 11.4C9.66103 11.4778 9.76103 11.5167 9.88325 11.5167H11.8833ZM9.73325 5.41668H13.6666C13.9333 5.41668 14.1666 5.51668 14.3666 5.71668C14.5666 5.91668 14.6666 6.15001 14.6666 6.41668V14.4167C14.6666 14.6833 14.5666 14.9167 14.3666 15.1167C14.1666 15.3167 13.9333 15.4167 13.6666 15.4167H2.33325C2.06659 15.4167 1.83325 15.3167 1.63325 15.1167C1.43325 14.9167 1.33325 14.6833 1.33325 14.4167V6.41668C1.33325 6.15001 1.43325 5.91668 1.63325 5.71668C1.83325 5.51668 2.06659 5.41668 2.33325 5.41668H6.28325V3.08334C6.28325 2.81668 6.38325 2.58334 6.58325 2.38334C6.78325 2.18334 7.01659 2.08334 7.28325 2.08334H8.73325C8.99992 2.08334 9.23325 2.18334 9.43325 2.38334C9.63325 2.58334 9.73325 2.81668 9.73325 3.08334V5.41668ZM7.28325 6.41668H8.73325V3.08334H7.28325V6.41668ZM5.89992 10.6833C6.15547 10.6833 6.36936 10.5972 6.54159 10.425C6.71381 10.2528 6.79992 10.0389 6.79992 9.78334C6.79992 9.52779 6.71381 9.3139 6.54159 9.14168C6.36936 8.96945 6.15547 8.88334 5.89992 8.88334C5.64436 8.88334 5.43047 8.96945 5.25825 9.14168C5.08603 9.3139 4.99992 9.52779 4.99992 9.78334C4.99992 10.0389 5.08603 10.2528 5.25825 10.425C5.43047 10.5972 5.64436 10.6833 5.89992 10.6833ZM3.86659 12.6333H7.84992V12.4C7.84992 12.2 7.79992 12.0222 7.69992 11.8667C7.59992 11.7111 7.47214 11.6056 7.31659 11.55C6.96103 11.4278 6.68325 11.3472 6.48325 11.3083C6.28325 11.2695 6.08881 11.25 5.89992 11.25C5.68881 11.25 5.46381 11.275 5.22492 11.325C4.98603 11.375 4.71659 11.45 4.41659 11.55C4.24992 11.6056 4.11659 11.7111 4.01659 11.8667C3.91659 12.0222 3.86659 12.2 3.86659 12.4V12.6333Z" fill="#777777"/>
</g>
</svg>
