<svg width="86" height="86" viewBox="0 0 86 86" fill="none" xmlns="http://www.w3.org/2000/svg">
<path d="M28.8333 30.6042C28.0807 30.6042 27.4499 30.3482 26.9408 29.8362C26.4316 29.324 26.1771 28.6895 26.1771 27.9325C26.1771 27.1755 26.4316 26.5461 26.9408 26.0444C27.4499 25.5426 28.0807 25.2917 28.8333 25.2917H72.2188C72.9714 25.2917 73.6022 25.5478 74.1113 26.0598C74.6204 26.572 74.875 27.2065 74.875 27.9635C74.875 28.7205 74.6204 29.3499 74.1113 29.8516C73.6022 30.3534 72.9714 30.6042 72.2188 30.6042H28.8333ZM28.8333 45.6563C28.0807 45.6563 27.4499 45.4003 26.9408 44.8882C26.4316 44.3761 26.1771 43.7416 26.1771 42.9846C26.1771 42.2276 26.4316 41.5982 26.9408 41.0964C27.4499 40.5947 28.0807 40.3438 28.8333 40.3438H72.2188C72.9714 40.3438 73.6022 40.5999 74.1113 41.1119C74.6204 41.6241 74.875 42.2586 74.875 43.0156C74.875 43.7726 74.6204 44.402 74.1113 44.9037C73.6022 45.4055 72.9714 45.6563 72.2188 45.6563H28.8333ZM28.8333 60.7084C28.0807 60.7084 27.4499 60.4524 26.9408 59.9403C26.4316 59.4282 26.1771 58.7936 26.1771 58.0367C26.1771 57.2796 26.4316 56.6503 26.9408 56.1485C27.4499 55.6468 28.0807 55.3959 28.8333 55.3959H72.2188C72.9714 55.3959 73.6022 55.6519 74.1113 56.164C74.6204 56.6761 74.875 57.3107 74.875 58.0677C74.875 58.8247 74.6204 59.4541 74.1113 59.9558C73.6022 60.4576 72.9714 60.7084 72.2188 60.7084H28.8333ZM13.7812 30.6042C13.0729 30.6042 12.4531 30.3386 11.9219 29.8074C11.3906 29.2761 11.125 28.6416 11.125 27.9037C11.125 27.1659 11.3906 26.5461 11.9219 26.0444C12.4531 25.5426 13.0877 25.2917 13.8255 25.2917C14.5634 25.2917 15.1832 25.5463 15.6849 26.0554C16.1866 26.5645 16.4375 27.1954 16.4375 27.948C16.4375 28.6563 16.1829 29.2761 15.6738 29.8074C15.1647 30.3386 14.5339 30.6042 13.7812 30.6042ZM13.7812 45.6563C13.0729 45.6563 12.4531 45.3907 11.9219 44.8595C11.3906 44.3282 11.125 43.6937 11.125 42.9558C11.125 42.218 11.3906 41.5982 11.9219 41.0964C12.4531 40.5947 13.0877 40.3438 13.8255 40.3438C14.5634 40.3438 15.1832 40.5984 15.6849 41.1075C16.1866 41.6166 16.4375 42.2475 16.4375 43.0001C16.4375 43.7084 16.1829 44.3282 15.6738 44.8595C15.1647 45.3907 14.5339 45.6563 13.7812 45.6563ZM13.7812 60.7084C13.0729 60.7084 12.4531 60.4428 11.9219 59.9115C11.3906 59.3803 11.125 58.7457 11.125 58.0079C11.125 57.27 11.3906 56.6503 11.9219 56.1485C12.4531 55.6468 13.0877 55.3959 13.8255 55.3959C14.5634 55.3959 15.1832 55.6505 15.6849 56.1596C16.1866 56.6687 16.4375 57.2996 16.4375 58.0522C16.4375 58.7605 16.1829 59.3803 15.6738 59.9115C15.1647 60.4428 14.5339 60.7084 13.7812 60.7084Z" fill="#D9E0EC"/>
</svg>
