<svg width="24" height="25" viewBox="0 0 24 25" fill="none" xmlns="http://www.w3.org/2000/svg">
<path d="M5.3077 20.7308C4.80257 20.7308 4.375 20.5558 4.025 20.2058C3.675 19.8558 3.5 19.4282 3.5 18.9231V5.53854C3.5 5.0334 3.675 4.60584 4.025 4.25583C4.375 3.90583 4.80257 3.73083 5.3077 3.73083H18.6923C19.1974 3.73083 19.625 3.90583 19.975 4.25583C20.325 4.60584 20.5 5.0334 20.5 5.53854V18.9231C20.5 19.4282 20.325 19.8558 19.975 20.2058C19.625 20.5558 19.1974 20.7308 18.6923 20.7308H5.3077ZM5.3077 19.2308H18.6923C18.7692 19.2308 18.8397 19.1988 18.9038 19.1347C18.9679 19.0705 19 19 19 18.9231V5.53854C19 5.4616 18.9679 5.39108 18.9038 5.32696C18.8397 5.26286 18.7692 5.23081 18.6923 5.23081H5.3077C5.23077 5.23081 5.16024 5.26286 5.09612 5.32696C5.03202 5.39108 4.99997 5.4616 4.99997 5.53854V18.9231C4.99997 19 5.03202 19.0705 5.09612 19.1347C5.16024 19.1988 5.23077 19.2308 5.3077 19.2308Z" fill="#1F1F1F"/>
</svg>
