<svg width="24" height="25" viewBox="0 0 24 25" fill="none" xmlns="http://www.w3.org/2000/svg">
<path d="M10.6 16.8362L17.323 10.1132L16.2692 9.05935L10.6 14.7286L7.74998 11.8786L6.69615 12.9324L10.6 16.8362ZM5.3077 21.4824C4.80257 21.4824 4.375 21.3074 4.025 20.9574C3.675 20.6074 3.5 20.1798 3.5 19.6747V6.29012C3.5 5.78499 3.675 5.35742 4.025 5.00742C4.375 4.65742 4.80257 4.48242 5.3077 4.48242H18.6923C19.1974 4.48242 19.625 4.65742 19.975 5.00742C20.325 5.35742 20.5 5.78499 20.5 6.29012V19.6747C20.5 20.1798 20.325 20.6074 19.975 20.9574C19.625 21.3074 19.1974 21.4824 18.6923 21.4824H5.3077Z" fill="#1F1F1F"/>
</svg>
