<svg width="18" height="18" viewBox="0 0 18 18" fill="none" xmlns="http://www.w3.org/2000/svg">
<g id="Frame" clip-path="url(#clip0_540_6569)">
<path id="Vector" d="M2 18C1.45 18 0.98 17.8 0.59 17.41C0.2 17.02 0 16.55 0 16V2C0 1.45 0.2 0.98 0.59 0.59C0.98 0.2 1.45 0 2 0H16C16.55 0 17.02 0.2 17.41 0.59C17.8 0.98 18 1.45 18 2V16C18 16.55 17.8 17.02 17.41 17.41C17.02 17.8 16.55 18 16 18H2ZM7.6 12.77C7.73 12.77 7.86 12.75 7.98 12.71C8.1 12.67 8.2 12.6 8.3 12.5L13.98 6.82C14.16 6.64 14.25 6.41 14.25 6.14C14.25 5.87 14.15 5.64 13.95 5.44C13.77 5.26 13.53 5.17 13.25 5.17C12.97 5.17 12.73 5.26 12.55 5.44L7.6 10.39L5.42 8.22C5.24 8.04 5.01 7.94 4.74 7.94C4.47 7.94 4.24 8.04 4.04 8.24C3.86 8.42 3.76 8.66 3.76 8.94C3.76 9.22 3.85 9.46 4.04 9.64L6.89 12.49C6.99 12.59 7.1 12.66 7.22 12.7C7.34 12.74 7.46 12.76 7.6 12.76V12.77Z" fill="#00A82D"/>
</g>
<defs>
<clipPath id="clip0_540_6569">
<rect width="18" height="18" fill="white"/>
</clipPath>
</defs>
</svg>
