<svg width="25" height="24" viewBox="0 0 25 24" fill="none" xmlns="http://www.w3.org/2000/svg">
<path d="M4.6498 11.95L9.0498 16.35C9.1998 16.5 9.27064 16.675 9.2623 16.875C9.25397 17.075 9.1748 17.25 9.0248 17.4C8.8748 17.55 8.69564 17.625 8.4873 17.625C8.27897 17.625 8.0998 17.55 7.9498 17.4L3.0248 12.475C2.94147 12.3916 2.88314 12.3083 2.8498 12.225C2.81647 12.1416 2.7998 12.05 2.7998 11.95C2.7998 11.85 2.81647 11.7583 2.8498 11.675C2.88314 11.5916 2.94147 11.5083 3.0248 11.425L8.0248 6.42495C8.1748 6.27495 8.35397 6.19995 8.5623 6.19995C8.77064 6.19995 8.9498 6.27495 9.0998 6.42495C9.2498 6.57495 9.3248 6.75412 9.3248 6.96245C9.3248 7.17078 9.2498 7.34995 9.0998 7.49995L4.6498 11.95ZM20.3498 11.95L15.9498 7.54995C15.7998 7.39995 15.729 7.22495 15.7373 7.02495C15.7456 6.82495 15.8248 6.64995 15.9748 6.49995C16.1248 6.34995 16.304 6.27495 16.5123 6.27495C16.7206 6.27495 16.8998 6.34995 17.0498 6.49995L21.9748 11.425C22.0581 11.5083 22.1165 11.5916 22.1498 11.675C22.1831 11.7583 22.1998 11.85 22.1998 11.95C22.1998 12.05 22.1831 12.1416 22.1498 12.225C22.1165 12.3083 22.0581 12.3916 21.9748 12.475L16.9748 17.475C16.8248 17.625 16.6498 17.6958 16.4498 17.6875C16.2498 17.6791 16.0748 17.6 15.9248 17.45C15.7748 17.3 15.6998 17.1208 15.6998 16.9125C15.6998 16.7041 15.7748 16.525 15.9248 16.375L20.3498 11.95Z" fill="#1F1F1F"/>
</svg>
