<svg width="25" height="24" viewBox="0 0 25 24" fill="none" xmlns="http://www.w3.org/2000/svg">
<path d="M9.225 17.75H15.775C15.9875 17.75 16.1656 17.6777 16.3094 17.5331C16.4531 17.3885 16.525 17.2094 16.525 16.9956C16.525 16.7819 16.4531 16.6042 16.3094 16.4625C16.1656 16.3208 15.9875 16.25 15.775 16.25H9.225C9.0125 16.25 8.83437 16.3223 8.69063 16.4669C8.54688 16.6115 8.475 16.7906 8.475 17.0044C8.475 17.2181 8.54688 17.3958 8.69063 17.5375C8.83437 17.6792 9.0125 17.75 9.225 17.75ZM9.225 13.5H15.775C15.9875 13.5 16.1656 13.4277 16.3094 13.2831C16.4531 13.1385 16.525 12.9594 16.525 12.7456C16.525 12.5319 16.4531 12.3542 16.3094 12.2125C16.1656 12.0708 15.9875 12 15.775 12H9.225C9.0125 12 8.83437 12.0723 8.69063 12.2169C8.54688 12.3615 8.475 12.5406 8.475 12.7544C8.475 12.9681 8.54688 13.1458 8.69063 13.2875C8.83437 13.4292 9.0125 13.5 9.225 13.5ZM6 22C5.6 22 5.25 21.85 4.95 21.55C4.65 21.25 4.5 20.9 4.5 20.5V3.5C4.5 3.1 4.65 2.75 4.95 2.45C5.25 2.15 5.6 2 6 2H14.4C14.6074 2 14.8051 2.04167 14.993 2.125C15.181 2.20833 15.3417 2.31667 15.475 2.45L20.05 7.025C20.1833 7.15833 20.2917 7.31898 20.375 7.50695C20.4583 7.69492 20.5 7.8926 20.5 8.1V20.5C20.5 20.9 20.35 21.25 20.05 21.55C19.75 21.85 19.4 22 19 22H6ZM14.275 7.4V3.5H6V20.5H19V8.15H15.025C14.8125 8.15 14.6344 8.07812 14.4906 7.93438C14.3469 7.79063 14.275 7.6125 14.275 7.4Z" fill="#1F1F1F"/>
</svg>
