<svg width="24" height="25" viewBox="0 0 24 25" fill="none" xmlns="http://www.w3.org/2000/svg">
<path d="M11.9978 23.5C11.5159 23.5 11.1042 23.3284 10.7625 22.9853C10.4208 22.6421 10.25 22.2297 10.25 21.7478C10.25 21.2659 10.4216 20.8542 10.7647 20.5125C11.1079 20.1708 11.5204 20 12.0022 20C12.4841 20 12.8958 20.1716 13.2375 20.5147C13.5792 20.8579 13.75 21.2704 13.75 21.7522C13.75 22.2341 13.5784 22.6458 13.2353 22.9875C12.8921 23.3292 12.4796 23.5 11.9978 23.5ZM5.74777 5C5.26592 5 4.85417 4.82843 4.5125 4.48528C4.17083 4.14214 4 3.72964 4 3.24778C4 2.76593 4.17158 2.35417 4.51473 2.0125C4.85786 1.67083 5.27036 1.5 5.75223 1.5C6.23408 1.5 6.64583 1.67157 6.9875 2.01472C7.32917 2.35786 7.5 2.77036 7.5 3.25222C7.5 3.73407 7.32843 4.14583 6.98528 4.4875C6.64214 4.82917 6.22964 5 5.74777 5ZM5.74777 11.15C5.26592 11.15 4.85417 10.9784 4.5125 10.6353C4.17083 10.2921 4 9.87964 4 9.39778C4 8.91593 4.17158 8.50417 4.51473 8.1625C4.85786 7.82083 5.27036 7.65 5.75223 7.65C6.23408 7.65 6.64583 7.82157 6.9875 8.16472C7.32917 8.50786 7.5 8.92036 7.5 9.40223C7.5 9.88408 7.32843 10.2958 6.98528 10.6375C6.64214 10.9792 6.22964 11.15 5.74777 11.15ZM5.74777 17.325C5.26592 17.325 4.85417 17.1534 4.5125 16.8103C4.17083 16.4671 4 16.0546 4 15.5728C4 15.0909 4.17158 14.6792 4.51473 14.3375C4.85786 13.9958 5.27036 13.825 5.75223 13.825C6.23408 13.825 6.64583 13.9966 6.9875 14.3397C7.32917 14.6829 7.5 15.0954 7.5 15.5772C7.5 16.0591 7.32843 16.4708 6.98528 16.8125C6.64214 17.1542 6.22964 17.325 5.74777 17.325ZM18.2478 5C17.7659 5 17.3542 4.82843 17.0125 4.48528C16.6708 4.14214 16.5 3.72964 16.5 3.24778C16.5 2.76593 16.6716 2.35417 17.0147 2.0125C17.3579 1.67083 17.7704 1.5 18.2522 1.5C18.7341 1.5 19.1458 1.67157 19.4875 2.01472C19.8292 2.35786 20 2.77036 20 3.25222C20 3.73407 19.8284 4.14583 19.4853 4.4875C19.1421 4.82917 18.7296 5 18.2478 5ZM11.9978 17.325C11.5159 17.325 11.1042 17.1534 10.7625 16.8103C10.4208 16.4671 10.25 16.0546 10.25 15.5728C10.25 15.0909 10.4216 14.6792 10.7647 14.3375C11.1079 13.9958 11.5204 13.825 12.0022 13.825C12.4841 13.825 12.8958 13.9966 13.2375 14.3397C13.5792 14.6829 13.75 15.0954 13.75 15.5772C13.75 16.0591 13.5784 16.4708 13.2353 16.8125C12.8921 17.1542 12.4796 17.325 11.9978 17.325ZM18.2478 17.325C17.7659 17.325 17.3542 17.1534 17.0125 16.8103C16.6708 16.4671 16.5 16.0546 16.5 15.5728C16.5 15.0909 16.6716 14.6792 17.0147 14.3375C17.3579 13.9958 17.7704 13.825 18.2522 13.825C18.7341 13.825 19.1458 13.9966 19.4875 14.3397C19.8292 14.6829 20 15.0954 20 15.5772C20 16.0591 19.8284 16.4708 19.4853 16.8125C19.1421 17.1542 18.7296 17.325 18.2478 17.325ZM18.2478 11.15C17.7659 11.15 17.3542 10.9784 17.0125 10.6353C16.6708 10.2921 16.5 9.87964 16.5 9.39778C16.5 8.91593 16.6716 8.50417 17.0147 8.1625C17.3579 7.82083 17.7704 7.65 18.2522 7.65C18.7341 7.65 19.1458 7.82157 19.4875 8.16472C19.8292 8.50786 20 8.92036 20 9.40223C20 9.88408 19.8284 10.2958 19.4853 10.6375C19.1421 10.9792 18.7296 11.15 18.2478 11.15ZM11.9978 11.15C11.5159 11.15 11.1042 10.9784 10.7625 10.6353C10.4208 10.2921 10.25 9.87964 10.25 9.39778C10.25 8.91593 10.4216 8.50417 10.7647 8.1625C11.1079 7.82083 11.5204 7.65 12.0022 7.65C12.4841 7.65 12.8958 7.82157 13.2375 8.16472C13.5792 8.50786 13.75 8.92036 13.75 9.40223C13.75 9.88408 13.5784 10.2958 13.2353 10.6375C12.8921 10.9792 12.4796 11.15 11.9978 11.15ZM11.9978 5C11.5159 5 11.1042 4.82843 10.7625 4.48528C10.4208 4.14214 10.25 3.72964 10.25 3.24778C10.25 2.76593 10.4216 2.35417 10.7647 2.0125C11.1079 1.67083 11.5204 1.5 12.0022 1.5C12.4841 1.5 12.8958 1.67157 13.2375 2.01472C13.5792 2.35786 13.75 2.77036 13.75 3.25222C13.75 3.73407 13.5784 4.14583 13.2353 4.4875C12.8921 4.82917 12.4796 5 11.9978 5Z" fill="#1F1F1F"/>
</svg>
