<svg width="36" height="36" viewBox="0 0 36 36" fill="none" xmlns="http://www.w3.org/2000/svg">
<rect width="36" height="36" rx="18" fill="#F2F2F2"/>
<path d="M25.2691 18C25.2691 18.4125 25.1222 18.7656 24.8285 19.0593C24.5347 19.3531 24.1816 19.5 23.7691 19.5C23.3566 19.5 23.0035 19.3531 22.7098 19.0593C22.416 18.7656 22.2691 18.4125 22.2691 18C22.2691 17.5875 22.416 17.2344 22.7098 16.9406C23.0035 16.6469 23.3566 16.5 23.7691 16.5C24.1816 16.5 24.5347 16.6469 24.8285 16.9406C25.1222 17.2344 25.2691 17.5875 25.2691 18ZM19.4999 18C19.4999 18.4125 19.353 18.7656 19.0592 19.0593C18.7655 19.3531 18.4124 19.5 17.9999 19.5C17.5874 19.5 17.2343 19.3531 16.9405 19.0593C16.6468 18.7656 16.4999 18.4125 16.4999 18C16.4999 17.5875 16.6468 17.2344 16.9405 16.9406C17.2343 16.6469 17.5874 16.5 17.9999 16.5C18.4124 16.5 18.7655 16.6469 19.0592 16.9406C19.353 17.2344 19.4999 17.5875 19.4999 18ZM13.7306 18C13.7306 18.4125 13.5838 18.7656 13.29 19.0593C12.9963 19.3531 12.6432 19.5 12.2307 19.5C11.8182 19.5 11.4651 19.3531 11.1713 19.0593C10.8776 18.7656 10.7307 18.4125 10.7307 18C10.7307 17.5875 10.8776 17.2344 11.1713 16.9406C11.4651 16.6469 11.8182 16.5 12.2307 16.5C12.6432 16.5 12.9963 16.6469 13.29 16.9406C13.5838 17.2344 13.7306 17.5875 13.7306 18Z" fill="#1F1F1F"/>
</svg>
