<svg viewBox="0 0 1024 1024" xmlns="http://www.w3.org/2000/svg"> <path d="M934.687 460.5C826.44 352.506 677.035 285.727 512.03 285.727S197.623 352.505 89.365 460.51l.01-.01c-30.114 30.458-48.718 72.354-48.718 118.594 0 46.178 18.553 88.023 48.612 118.487l-.018-.018.064.064c6.518 6.723 13.7 12.733 21.46 17.948l.477.302c13.063 9.56 28.355 17.03 44.873 21.524l.972.225c1.733.426 3.725.676 5.773.687h.046c5.282 0 10.165-1.71 14.123-4.61l-.067.047 188.498-136.877c6.023-4.426 9.893-11.48 9.906-19.435v-.002c-.05-25.51-5.972-49.626-16.488-71.082l.424.957c45.13-19.12 97.61-30.233 152.687-30.233s107.557 11.113 155.323 31.22l-2.635-.986c-10.096 20.5-16.02 44.615-16.064 70.11v.016c.016 7.952 3.87 15 9.81 19.39l.066.047 188.5 136.875c3.998 2.813 8.968 4.495 14.33 4.495 1.966 0 3.878-.226 5.714-.654l-.17.032c26.642-7.942 49.474-21.784 67.884-40.073l-.01.008c30.047-30.455 48.604-72.31 48.604-118.5 0-46.22-18.58-88.1-48.68-118.58l.018.018zm-34 203.188c-4.69 4.823-9.867 9.127-15.466 12.846l-.345.216c-5.65 4.124-12.088 7.79-18.924 10.697l-.637.24-168.064-122.03c2.417-21.056 10.02-39.97 21.488-55.916l-.24.354c2.743-3.845 4.386-8.64 4.386-13.817 0-9.43-5.45-17.588-13.372-21.495l-.14-.063c-57.61-28.83-125.514-45.704-197.36-45.704S372.265 445.89 312.05 475.894l2.604-1.175c-8.05 3.99-13.486 12.153-13.486 21.585 0 5.15 1.62 9.923 4.38 13.833l-.05-.076c11.21 15.61 18.81 34.53 21.195 55.04l.053.554-168.064 122.03c-7.92-3.416-14.732-7.328-21.03-11.903l.31.216c-5.466-3.684-10.233-7.697-14.535-12.16l-.026-.028c-21.513-21.763-34.804-51.697-34.804-84.735 0-32.99 13.253-62.886 34.725-84.654l-.012.014c99.545-99.32 236.944-160.735 388.687-160.735s289.143 61.415 388.698 160.745l-.01-.01c21.46 21.747 34.714 51.64 34.714 84.627 0 32.985-13.252 62.874-34.72 84.635l.012-.014z" fill="#808080" />
</svg>