<svg width="24" height="24" viewBox="0 0 24 24" fill="none" xmlns="http://www.w3.org/2000/svg">
  <path d="M12.4637 15.7708C13.5968 15.7708 14.5592 15.3742 15.3508 14.581C16.1425 13.7879 16.5383 12.8247 16.5383 11.6916C16.5383 10.5585 16.1417 9.59615 15.3486 8.80448C14.5554 8.01282 13.5922 7.61698 12.4591 7.61698C11.3261 7.61698 10.3637 8.01357 9.57202 8.80673C8.78036 9.59992 8.38452 10.5631 8.38452 11.6962C8.38452 12.8292 8.78111 13.7916 9.57427 14.5833C10.3675 15.375 11.3306 15.7708 12.4637 15.7708ZM12.4614 14.3939C11.7114 14.3939 11.0739 14.1314 10.5489 13.6064C10.0239 13.0814 9.76142 12.4439 9.76142 11.6939C9.76142 10.9439 10.0239 10.3064 10.5489 9.78138C11.0739 9.25638 11.7114 8.99388 12.4614 8.99388C13.2114 8.99388 13.8489 9.25638 14.3739 9.78138C14.8989 10.3064 15.1614 10.9439 15.1614 11.6939C15.1614 12.4439 14.8989 13.0814 14.3739 13.6064C13.8489 14.1314 13.2114 14.3939 12.4614 14.3939ZM12.4628 18.6939C10.1632 18.6939 8.06786 18.0596 6.17682 16.791C4.28581 15.5224 2.89351 13.8234 1.99992 11.6939C2.89351 9.5644 4.28536 7.86537 6.17547 6.59678C8.06557 5.3282 10.1604 4.69391 12.46 4.69391C14.7597 4.69391 16.855 5.3282 18.746 6.59678C20.637 7.86537 22.0293 9.5644 22.9229 11.6939C22.0293 13.8234 20.6375 15.5224 18.7474 16.791C16.8573 18.0596 14.7624 18.6939 12.4628 18.6939Z" fill="#8F8F8F"/>
  <line x1="2.1" y1="2.1" x2="21.9" y2="21.9" stroke="#666666" stroke-width="2"/>
</svg>
