<svg width="23" height="23" viewBox="0 0 23 23" fill="none" xmlns="http://www.w3.org/2000/svg">
<path d="M12.4638 15.7707C13.5969 15.7707 14.5592 15.3741 15.3509 14.581C16.1426 13.7878 16.5384 12.8246 16.5384 11.6915C16.5384 10.5585 16.1418 9.59609 15.3487 8.80442C14.5555 8.01276 13.5923 7.61692 12.4592 7.61692C11.3261 7.61692 10.3638 8.01351 9.5721 8.80667C8.78043 9.59986 8.3846 10.563 8.3846 11.6961C8.3846 12.8292 8.78118 13.7916 9.57435 14.5832C10.3675 15.3749 11.3307 15.7707 12.4638 15.7707ZM12.4615 14.3938C11.7115 14.3938 11.074 14.1313 10.549 13.6063C10.024 13.0813 9.7615 12.4438 9.7615 11.6938C9.7615 10.9438 10.024 10.3063 10.549 9.78132C11.074 9.25632 11.7115 8.99382 12.4615 8.99382C13.2115 8.99382 13.849 9.25632 14.374 9.78132C14.899 10.3063 15.1615 10.9438 15.1615 11.6938C15.1615 12.4438 14.899 13.0813 14.374 13.6063C13.849 14.1313 13.2115 14.3938 12.4615 14.3938ZM12.4629 18.6938C10.1633 18.6938 8.06793 18.0595 6.1769 16.7909C4.28588 15.5223 2.89358 13.8233 2 11.6938C2.89358 9.56434 4.28543 7.86531 6.17555 6.59672C8.06565 5.32814 10.1605 4.69385 12.4601 4.69385C14.7597 4.69385 16.8551 5.32814 18.7461 6.59672C20.6371 7.86531 22.0294 9.56434 22.923 11.6938C22.0294 13.8233 20.6376 15.5223 18.7475 16.7909C16.8574 18.0595 14.7625 18.6938 12.4629 18.6938Z" fill="#C9C9C9"/>
</svg>
