<svg width="25" height="24" viewBox="0 0 25 24" fill="none" xmlns="http://www.w3.org/2000/svg">
<path d="M14.4104 12.7307H18.9488V11.2308H14.4104V12.7307ZM14.4104 9.84613H18.9488V8.34615H14.4104V9.84613ZM5.71812 15.6538H13.0257V15.2961C13.0257 14.6295 12.6959 14.1057 12.0363 13.725C11.3767 13.3442 10.4886 13.1538 9.37195 13.1538C8.25528 13.1538 7.36714 13.3442 6.70752 13.725C6.04792 14.1057 5.71812 14.6295 5.71812 15.2961V15.6538ZM9.37195 11.8461C9.85783 11.8461 10.271 11.6759 10.6113 11.3356C10.9517 10.9952 11.1219 10.582 11.1219 10.0961C11.1219 9.61024 10.9517 9.19711 10.6113 8.85673C10.271 8.51634 9.85783 8.34615 9.37195 8.34615C8.88605 8.34615 8.4729 8.51634 8.13252 8.85673C7.79214 9.19711 7.62195 9.61024 7.62195 10.0961C7.62195 10.582 7.79214 10.9952 8.13252 11.3356C8.4729 11.6759 8.88605 11.8461 9.37195 11.8461ZM4.6412 19.5C4.13606 19.5 3.7085 19.325 3.3585 18.975C3.0085 18.625 2.8335 18.1974 2.8335 17.6923V6.3077C2.8335 5.80257 3.0085 5.375 3.3585 5.025C3.7085 4.675 4.13606 4.5 4.6412 4.5H20.0257C20.5309 4.5 20.9584 4.675 21.3084 5.025C21.6584 5.375 21.8334 5.80257 21.8334 6.3077V17.6923C21.8334 18.1974 21.6584 18.625 21.3084 18.975C20.9584 19.325 20.5309 19.5 20.0257 19.5H4.6412ZM4.6412 18H20.0257C20.1027 18 20.1732 17.9679 20.2373 17.9038C20.3014 17.8397 20.3335 17.7692 20.3335 17.6923V6.3077C20.3335 6.23077 20.3014 6.16024 20.2373 6.09613C20.1732 6.03203 20.1027 5.99998 20.0257 5.99998H4.6412C4.56426 5.99998 4.49374 6.03203 4.42962 6.09613C4.36552 6.16024 4.33347 6.23077 4.33347 6.3077V17.6923C4.33347 17.7692 4.36552 17.8397 4.42962 17.9038C4.49374 17.9679 4.56426 18 4.6412 18Z" fill="#1F1F1F"/>
</svg>
