<svg width="24" height="24" viewBox="0 0 24 24" fill="none" xmlns="http://www.w3.org/2000/svg">
<path d="M4.5 21C4.1 21 3.75 20.85 3.45 20.55C3.15 20.25 3 19.9 3 19.5V4.5C3 4.1 3.15 3.75 3.45 3.45C3.75 3.15 4.1 3 4.5 3H10.725C10.9375 3 11.1157 3.07233 11.2595 3.217C11.4032 3.3615 11.475 3.54067 11.475 3.7545C11.475 3.96817 11.4032 4.14583 11.2595 4.2875C11.1157 4.42917 10.9375 4.5 10.725 4.5H4.5V19.5H19.5V13.275C19.5 13.0625 19.5723 12.8843 19.717 12.7405C19.8615 12.5968 20.0407 12.525 20.2545 12.525C20.4682 12.525 20.6458 12.5968 20.7875 12.7405C20.9292 12.8843 21 13.0625 21 13.275V19.5C21 19.9 20.85 20.25 20.55 20.55C20.25 20.85 19.9 21 19.5 21H4.5ZM19.5 5.575L10.075 15C9.925 15.15 9.75 15.2208 9.55 15.2125C9.35 15.2042 9.175 15.125 9.025 14.975C8.875 14.825 8.8 14.65 8.8 14.45C8.8 14.25 8.875 14.075 9.025 13.925L18.45 4.5H13.725C13.5125 4.5 13.3344 4.42767 13.1908 4.283C13.0469 4.1385 12.975 3.95933 12.975 3.7455C12.975 3.53183 13.0469 3.35417 13.1908 3.2125C13.3344 3.07083 13.5125 3 13.725 3H20.25C20.4625 3 20.6407 3.07183 20.7845 3.2155C20.9282 3.35933 21 3.5375 21 3.75V10.275C21 10.4875 20.9277 10.6656 20.783 10.8092C20.6385 10.9531 20.4593 11.025 20.2455 11.025C20.0318 11.025 19.8542 10.9531 19.7125 10.8092C19.5708 10.6656 19.5 10.4875 19.5 10.275V5.575Z" fill="#5479F7"/>
</svg>
