<svg width="86" height="112" viewBox="0 0 86 112" fill="none" xmlns="http://www.w3.org/2000/svg">
<g clip-path="url(#clip0_2565_32225)">
<path d="M6.81255 100.522L29.7949 77.54C36.7712 83.4297 44.1573 87.9971 51.9532 91.2421C59.749 94.4872 67.6093 96.1097 75.5342 96.1097C77.2273 96.1097 78.4775 95.6414 79.285 94.7048C80.0926 93.7682 80.4964 92.5975 80.4964 91.1926V76.0094C80.4964 74.7966 80.1226 73.7505 79.3752 72.8709C78.6277 71.9913 77.6626 71.4194 76.4798 71.1553L63.476 68.5077C62.4973 68.3216 61.4467 68.4011 60.324 68.7463C59.2013 69.0915 58.2827 69.6214 57.5682 70.3358L47.0587 80.9354C45.1135 79.8367 43.0137 78.5083 40.7593 76.9503C38.5047 75.3923 36.5429 73.8959 34.8739 72.4609L84.4408 22.8941C85.0891 22.2457 85.4209 21.4307 85.4359 20.4492C85.4509 19.4676 85.1192 18.6375 84.4408 17.9592C83.7624 17.2808 82.9399 16.9416 81.9732 16.9416C81.0067 16.9416 80.1842 17.2808 79.5058 17.9592L1.87758 95.5874C1.22923 96.2357 0.897522 97.0507 0.882462 98.0323C0.86747 99.014 1.19918 99.844 1.87758 100.522C2.55598 101.201 3.37849 101.54 4.34513 101.54C5.31168 101.54 6.13416 101.201 6.81255 100.522ZM53.7498 84.1144L62.017 75.7571C62.1671 75.607 62.3097 75.5094 62.4448 75.4643C62.5799 75.4193 62.7375 75.4268 62.9175 75.4869L72.7516 77.5582C72.9918 77.6182 73.1719 77.7232 73.2919 77.8733C73.4121 78.0235 73.4721 78.2187 73.4721 78.4588V88.3109C73.4721 88.491 73.4121 88.6411 73.2919 88.7612C73.1719 88.8813 73.0218 88.9413 72.8417 88.9413C69.9119 88.7972 66.7734 88.3184 63.4263 87.5049C60.0792 86.6914 56.8537 85.5612 53.7498 84.1144ZM18.3939 65.7697L23.3289 60.8349C22.0981 59.3879 20.8253 57.6934 19.5105 55.7511C18.1956 53.8089 17.1119 52.0363 16.2594 50.4333L27.0751 39.9058C27.7895 39.2213 28.2714 38.3358 28.5206 37.2491C28.7697 36.1625 28.8012 35.1778 28.615 34.2953L25.9314 20.5168C25.6673 19.3341 25.0954 18.369 24.2159 17.6215C23.3363 16.874 22.2901 16.5003 21.0774 16.5003H5.80408C4.39922 16.5003 3.22849 16.9761 2.2919 17.9278C1.35532 18.8793 0.887024 20.0576 0.887024 21.4624C0.887024 29.2373 2.46603 36.94 5.62403 44.5706C8.78196 52.2014 13.0386 59.2677 18.3939 65.7697ZM13.0085 43.7873C11.5616 40.5033 10.4344 37.2102 9.62687 33.9081C8.81931 30.606 8.29548 27.355 8.0554 24.155C8.0554 23.9749 8.11542 23.8248 8.23546 23.7047C8.35558 23.5846 8.50571 23.5246 8.68584 23.5246H18.628C18.8682 23.5246 19.0633 23.5846 19.2134 23.7047C19.3635 23.8248 19.4685 24.0049 19.5285 24.245L21.6359 34.7096C21.696 34.8897 21.7035 35.0773 21.6585 35.2725C21.6134 35.4676 21.5159 35.6402 21.3658 35.7903L13.0085 43.7873Z" fill="#D9E0EC"/>
</g>
<defs>
<clipPath id="clip0_2565_32225">
<rect width="85" height="112" fill="white" transform="matrix(-1 0 0 1 85.5 0)"/>
</clipPath>
</defs>
</svg>
