<svg width="24" height="25" viewBox="0 0 24 25" fill="none" xmlns="http://www.w3.org/2000/svg">
<path d="M17 17.5001C17.4167 17.5001 17.7708 17.3542 18.0625 17.0626C18.3542 16.7709 18.5 16.4167 18.5 16.0001C18.5 15.5834 18.3542 15.2292 18.0625 14.9376C17.7708 14.6459 17.4167 14.5001 17 14.5001C16.5833 14.5001 16.2292 14.6459 15.9375 14.9376C15.6458 15.2292 15.5 15.5834 15.5 16.0001C15.5 16.4167 15.6458 16.7709 15.9375 17.0626C16.2292 17.3542 16.5833 17.5001 17 17.5001ZM17 20.5001C17.5231 20.5001 17.9997 20.3808 18.4298 20.1424C18.8599 19.9039 19.2115 19.5847 19.4846 19.1847C19.1115 18.9616 18.7167 18.7917 18.3 18.6751C17.8833 18.5584 17.45 18.5001 17 18.5001C16.55 18.5001 16.1167 18.5584 15.7 18.6751C15.2833 18.7917 14.8885 18.9616 14.5154 19.1847C14.7885 19.5847 15.1401 19.9039 15.5702 20.1424C16.0003 20.3808 16.4769 20.5001 17 20.5001ZM12 21.9808C9.83718 21.3911 8.04648 20.118 6.6279 18.1616C5.20932 16.2052 4.50002 14.018 4.50002 11.6001V5.84625L12 3.03857L19.5 5.84625V11.5117C19.2666 11.4168 19.0218 11.3312 18.7654 11.2549C18.509 11.1786 18.2538 11.1187 18 11.0751V6.89045L12 4.65007L6 6.89045V11.6001C6 12.486 6.125 13.351 6.375 14.1953C6.625 15.0395 6.96956 15.8286 7.40867 16.5626C7.84777 17.2966 8.37246 17.9556 8.98272 18.5395C9.59299 19.1235 10.2552 19.5898 10.9693 19.9386L10.9981 19.929C11.1302 20.2956 11.3013 20.6469 11.5116 20.9828C11.7218 21.3186 11.9609 21.6238 12.2288 21.8981C12.1866 21.9109 12.1484 21.9247 12.1144 21.9395C12.0805 21.9542 12.0423 21.968 12 21.9808ZM17 22.0001C15.7513 22.0001 14.6891 21.5622 13.8135 20.6866C12.9378 19.811 12.5 18.7488 12.5 17.5001C12.5 16.2514 12.9378 15.1892 13.8135 14.3136C14.6891 13.4379 15.7513 13.0001 17 13.0001C18.2487 13.0001 19.3109 13.4379 20.1865 14.3136C21.0622 15.1892 21.5 16.2514 21.5 17.5001C21.5 18.7488 21.0622 19.811 20.1865 20.6866C19.3109 21.5622 18.2487 22.0001 17 22.0001Z" fill="#1F1F1F"/>
</svg>
