<svg width="24" height="24" viewBox="0 0 24 24" fill="none" xmlns="http://www.w3.org/2000/svg">
<path d="M17 17C17.4166 17 17.7708 16.8541 18.0625 16.5625C18.3541 16.2708 18.5 15.9166 18.5 15.5C18.5 15.0833 18.3541 14.7291 18.0625 14.4375C17.7708 14.1458 17.4166 14 17 14C16.5833 14 16.2291 14.1458 15.9375 14.4375C15.6458 14.7291 15.5 15.0833 15.5 15.5C15.5 15.9166 15.6458 16.2708 15.9375 16.5625C16.2291 16.8541 16.5833 17 17 17ZM17 20C17.5231 20 17.9997 19.8807 18.4298 19.6423C18.8599 19.4038 19.2115 19.0846 19.4846 18.6846C19.1115 18.4615 18.7166 18.2916 18.3 18.175C17.8833 18.0583 17.45 18 17 18C16.55 18 16.1166 18.0583 15.7 18.175C15.2833 18.2916 14.8884 18.4615 14.5154 18.6846C14.7884 19.0846 15.14 19.4038 15.5702 19.6423C16.0003 19.8807 16.4769 20 17 20ZM12 21.4807C9.83716 20.8909 8.04646 19.6179 6.62787 17.6615C5.20929 15.7051 4.5 13.5179 4.5 11.1V5.34613L12 2.53845L19.5 5.34613V11.0115C19.2666 10.9166 19.0218 10.8311 18.7654 10.7548C18.5089 10.6785 18.2538 10.6186 18 10.575V6.39033L12 4.14995L5.99997 6.39033V11.1C5.99997 11.9859 6.12497 12.8509 6.37497 13.6952C6.62497 14.5394 6.96953 15.3285 7.40865 16.0625C7.84775 16.7965 8.37243 17.4554 8.9827 18.0394C9.59297 18.6234 10.2552 19.0897 10.9693 19.4384L10.9981 19.4288C11.1302 19.7955 11.3013 20.1467 11.5116 20.4826C11.7218 20.8185 11.9609 21.1236 12.2288 21.398C12.1865 21.4108 12.1484 21.4246 12.1144 21.4393C12.0804 21.4541 12.0423 21.4679 12 21.4807ZM17 21.4999C15.7513 21.4999 14.6891 21.0621 13.8135 20.1865C12.9378 19.3108 12.5 18.2487 12.5 17C12.5 15.7513 12.9378 14.6891 13.8135 13.8134C14.6891 12.9378 15.7513 12.5 17 12.5C18.2487 12.5 19.3109 12.9378 20.1865 13.8134C21.0621 14.6891 21.5 15.7513 21.5 17C21.5 18.2487 21.0621 19.3108 20.1865 20.1865C19.3109 21.0621 18.2487 21.4999 17 21.4999Z" fill="#1F1F1F"/>
</svg>
