<svg width="14" height="20" viewBox="0 0 14 20" fill="none" xmlns="http://www.w3.org/2000/svg">
<path d="M6.99803 19.5356C6.58032 19.5356 6.22338 19.3869 5.9272 19.0894C5.63101 18.792 5.48292 18.4344 5.48292 18.0167C5.48292 17.599 5.63166 17.242 5.92912 16.9459C6.22658 16.6497 6.58417 16.5016 7.00188 16.5016C7.41959 16.5016 7.77653 16.6503 8.07272 16.9478C8.3689 17.2452 8.51699 17.6028 8.51699 18.0205C8.51699 18.4382 8.36826 18.7952 8.07079 19.0914C7.77333 19.3876 7.41575 19.5356 6.99803 19.5356ZM1.58005 3.49842C1.16234 3.49842 0.805399 3.34969 0.509216 3.05222C0.213033 2.75477 0.0649414 2.39718 0.0649414 1.97946C0.0649414 1.56176 0.213676 1.20481 0.511145 0.90863C0.808599 0.612447 1.16619 0.464355 1.5839 0.464355C2.00161 0.464355 2.35855 0.61309 2.65474 0.910558C2.95092 1.20801 3.09901 1.5656 3.09901 1.98332C3.09901 2.40102 2.95028 2.75797 2.65281 3.05415C2.35535 3.35033 1.99777 3.49842 1.58005 3.49842ZM1.58005 8.82972C1.16234 8.82972 0.805399 8.68098 0.509216 8.38351C0.213033 8.08606 0.0649414 7.72847 0.0649414 7.31075C0.0649414 6.89305 0.213676 6.5361 0.511145 6.23992C0.808599 5.94374 1.16619 5.79565 1.5839 5.79565C2.00161 5.79565 2.35855 5.94438 2.65474 6.24185C2.95092 6.5393 3.09901 6.89689 3.09901 7.31461C3.09901 7.73232 2.95028 8.08926 2.65281 8.38544C2.35535 8.68162 1.99777 8.82972 1.58005 8.82972ZM1.58005 14.1827C1.16234 14.1827 0.805399 14.0339 0.509216 13.7365C0.213033 13.439 0.0649414 13.0814 0.0649414 12.6637C0.0649414 12.246 0.213676 11.8891 0.511145 11.5929C0.808599 11.2967 1.16619 11.1486 1.5839 11.1486C2.00161 11.1486 2.35855 11.2973 2.65474 11.5948C2.95092 11.8923 3.09901 12.2499 3.09901 12.6676C3.09901 13.0853 2.95028 13.4422 2.65281 13.7384C2.35535 14.0346 1.99777 14.1827 1.58005 14.1827ZM12.416 3.49842C11.9983 3.49842 11.6414 3.34969 11.3452 3.05222C11.049 2.75477 10.9009 2.39718 10.9009 1.97946C10.9009 1.56176 11.0496 1.20481 11.3471 0.90863C11.6446 0.612447 12.0021 0.464355 12.4199 0.464355C12.8376 0.464355 13.1945 0.61309 13.4907 0.910558C13.7869 1.20801 13.935 1.5656 13.935 1.98332C13.935 2.40102 13.7862 2.75797 13.4888 3.05415C13.1913 3.35033 12.8337 3.49842 12.416 3.49842ZM6.99803 14.1827C6.58032 14.1827 6.22338 14.0339 5.9272 13.7365C5.63101 13.439 5.48292 13.0814 5.48292 12.6637C5.48292 12.246 5.63166 11.8891 5.92912 11.5929C6.22658 11.2967 6.58417 11.1486 7.00188 11.1486C7.41959 11.1486 7.77653 11.2973 8.07272 11.5948C8.3689 11.8923 8.51699 12.2499 8.51699 12.6676C8.51699 13.0853 8.36826 13.4422 8.07079 13.7384C7.77333 14.0346 7.41575 14.1827 6.99803 14.1827ZM12.416 14.1827C11.9983 14.1827 11.6414 14.0339 11.3452 13.7365C11.049 13.439 10.9009 13.0814 10.9009 12.6637C10.9009 12.246 11.0496 11.8891 11.3471 11.5929C11.6446 11.2967 12.0021 11.1486 12.4199 11.1486C12.8376 11.1486 13.1945 11.2973 13.4907 11.5948C13.7869 11.8923 13.935 12.2499 13.935 12.6676C13.935 13.0853 13.7862 13.4422 13.4888 13.7384C13.1913 14.0346 12.8337 14.1827 12.416 14.1827ZM12.416 8.82972C11.9983 8.82972 11.6414 8.68098 11.3452 8.38351C11.049 8.08606 10.9009 7.72847 10.9009 7.31075C10.9009 6.89305 11.0496 6.5361 11.3471 6.23992C11.6446 5.94374 12.0021 5.79565 12.4199 5.79565C12.8376 5.79565 13.1945 5.94438 13.4907 6.24185C13.7869 6.5393 13.935 6.89689 13.935 7.31461C13.935 7.73232 13.7862 8.08926 13.4888 8.38544C13.1913 8.68162 12.8337 8.82972 12.416 8.82972ZM6.99803 8.82972C6.58032 8.82972 6.22338 8.68098 5.9272 8.38351C5.63101 8.08606 5.48292 7.72847 5.48292 7.31075C5.48292 6.89305 5.63166 6.5361 5.92912 6.23992C6.22658 5.94374 6.58417 5.79565 7.00188 5.79565C7.41959 5.79565 7.77653 5.94438 8.07272 6.24185C8.3689 6.5393 8.51699 6.89689 8.51699 7.31461C8.51699 7.73232 8.36826 8.08926 8.07079 8.38544C7.77333 8.68162 7.41575 8.82972 6.99803 8.82972ZM6.99803 3.49842C6.58032 3.49842 6.22338 3.34969 5.9272 3.05222C5.63101 2.75477 5.48292 2.39718 5.48292 1.97946C5.48292 1.56176 5.63166 1.20481 5.92912 0.90863C6.22658 0.612447 6.58417 0.464355 7.00188 0.464355C7.41959 0.464355 7.77653 0.61309 8.07272 0.910558C8.3689 1.20801 8.51699 1.5656 8.51699 1.98332C8.51699 2.40102 8.36826 2.75797 8.07079 3.05415C7.77333 3.35033 7.41575 3.49842 6.99803 3.49842Z" fill="#1F1F1F"/>
</svg>
