<svg width="40" height="40" viewBox="0 0 40 40" fill="none" xmlns="http://www.w3.org/2000/svg">
<path d="M16.25 26.7305L26.7307 19.9998L16.25 13.2691V26.7305ZM20.0028 35.8331C17.8129 35.8331 15.7545 35.4175 13.8276 34.5864C11.9007 33.7553 10.2245 32.6274 8.79919 31.2027C7.3738 29.7779 6.24537 28.1025 5.4139 26.1765C4.58242 24.2504 4.16669 22.1925 4.16669 20.0026C4.16669 17.8127 4.58224 15.7543 5.41335 13.8274C6.24447 11.9005 7.37238 10.2244 8.7971 8.79901C10.2219 7.37362 11.8973 6.24519 13.8233 5.41371C15.7493 4.58224 17.8073 4.1665 19.9972 4.1665C22.1871 4.1665 24.2455 4.58206 26.1724 5.41317C28.0993 6.24428 29.7754 7.3722 31.2008 8.79692C32.6262 10.2217 33.7546 11.8971 34.5861 13.8231C35.4175 15.7492 35.8333 17.8071 35.8333 19.997C35.8333 22.1869 35.4177 24.2453 34.5866 26.1722C33.7555 28.0991 32.6276 29.7752 31.2029 31.2006C29.7781 32.626 28.1027 33.7544 26.1766 34.5859C24.2506 35.4174 22.1927 35.8331 20.0028 35.8331Z" fill="#1F1F1F"/>
</svg>
