<svg width="758" height="624" viewBox="0 0 758 624" fill="none" xmlns="http://www.w3.org/2000/svg">
<g filter="url(#filter0_i_2249_23880)">
<g clip-path="url(#clip0_2249_23880)">
<rect width="758" height="624" fill="#F2F2F2"/>
<rect x="38.0244" y="90" width="60.4815" height="8" rx="4" fill="#EBEBEB"/>
<rect x="24" y="90" width="7.01235" height="8" rx="3.50617" fill="#EBEBEB"/>
<rect x="124.803" y="90" width="60.4815" height="8" rx="4" fill="#EBEBEB"/>
<rect x="110.778" y="90" width="7.01235" height="8" rx="3.50617" fill="#EBEBEB"/>
<rect x="211.58" y="90" width="60.4815" height="8" rx="4" fill="#EFF0F6"/>
<rect x="197.556" y="90" width="7.01235" height="8" rx="3.50617" fill="#EFF0F6"/>
<rect x="298.358" y="90" width="60.4815" height="8" rx="4" fill="#EFF0F6"/>
<rect x="284.334" y="90" width="7.01235" height="8" rx="3.50617" fill="#EFF0F6"/>
<rect x="24" y="24" width="710" height="14" rx="7" fill="#EBEBEB"/>
<rect x="24" y="68" width="127.975" height="8" rx="4" fill="#EBEBEB"/>
<rect x="24" y="52" width="74.5062" height="8" rx="4" fill="#EBEBEB"/>
<rect x="38.0645" y="200.909" width="60.6519" height="8" rx="4" fill="#EBEBEB"/>
<rect x="24" y="200.909" width="7.0321" height="8" rx="3.51605" fill="#EBEBEB"/>
<rect x="125.086" y="200.909" width="60.6519" height="8" rx="4" fill="#EBEBEB"/>
<rect x="111.021" y="200.909" width="7.0321" height="8" rx="3.51605" fill="#EBEBEB"/>
<rect x="212.109" y="200.909" width="60.6519" height="8" rx="4" fill="#EFF0F6"/>
<rect x="198.045" y="200.909" width="7.0321" height="8" rx="3.51605" fill="#EFF0F6"/>
<rect x="299.132" y="200.909" width="60.6519" height="8" rx="4" fill="#EFF0F6"/>
<rect x="285.067" y="200.909" width="7.0321" height="8" rx="3.51605" fill="#EFF0F6"/>
<rect x="24" y="134.909" width="712" height="14" rx="7" fill="#EBEBEB"/>
<rect x="24" y="178.909" width="128.336" height="8" rx="4" fill="#EBEBEB"/>
<rect x="24" y="162.909" width="74.716" height="8" rx="4" fill="#EBEBEB"/>
<rect x="38.3408" y="309" width="61.8444" height="8" rx="4" fill="#EBEBEB"/>
<rect x="24" y="309" width="7.17037" height="8" rx="3.58519" fill="#EBEBEB"/>
<rect x="127.074" y="309" width="61.8444" height="8" rx="4" fill="#EBEBEB"/>
<rect x="112.733" y="309" width="7.17037" height="8" rx="3.58519" fill="#EBEBEB"/>
<rect x="215.808" y="309" width="61.8444" height="8" rx="4" fill="#EFF0F6"/>
<rect x="201.467" y="309" width="7.17037" height="8" rx="3.58519" fill="#EFF0F6"/>
<rect x="304.541" y="309" width="61.8444" height="8" rx="4" fill="#EFF0F6"/>
<rect x="290.2" y="309" width="7.17037" height="8" rx="3.58519" fill="#EFF0F6"/>
<rect x="24" y="243" width="726" height="14" rx="7" fill="#EBEBEB"/>
<rect x="24" y="287" width="130.859" height="8" rx="4" fill="#EBEBEB"/>
<rect x="24" y="271" width="76.1852" height="8" rx="4" fill="#EBEBEB"/>
</g>
<rect x="0.5" y="0.5" width="757" height="623" rx="9.5" stroke="#D8DBDF"/>
</g>
<defs>
<filter id="filter0_i_2249_23880" x="0" y="0" width="758" height="624" filterUnits="userSpaceOnUse" color-interpolation-filters="sRGB">
<feFlood flood-opacity="0" result="BackgroundImageFix"/>
<feBlend mode="normal" in="SourceGraphic" in2="BackgroundImageFix" result="shape"/>
<feColorMatrix in="SourceAlpha" type="matrix" values="0 0 0 0 0 0 0 0 0 0 0 0 0 0 0 0 0 0 127 0" result="hardAlpha"/>
<feOffset/>
<feGaussianBlur stdDeviation="9.5"/>
<feComposite in2="hardAlpha" operator="arithmetic" k2="-1" k3="1"/>
<feColorMatrix type="matrix" values="0 0 0 0 0.393658 0 0 0 0 0.393658 0 0 0 0 0.393658 0 0 0 0.25 0"/>
<feBlend mode="normal" in2="shape" result="effect1_innerShadow_2249_23880"/>
</filter>
<clipPath id="clip0_2249_23880">
<rect width="758" height="624" rx="10" fill="white"/>
</clipPath>
</defs>
</svg>
