<svg width="24" height="24" viewBox="0 0 24 24" fill="none" xmlns="http://www.w3.org/2000/svg">
<path d="M6.5 21.5V17.4692C5.55 16.6025 4.8125 15.6093 4.2875 14.4894C3.7625 13.3695 3.5 12.2041 3.5 10.993C3.5 8.63386 4.32639 6.62857 5.97918 4.97715C7.63194 3.32572 9.63888 2.5 12 2.5C13.9423 2.5 15.6791 3.08045 17.2105 4.24135C18.7419 5.40225 19.7365 6.90833 20.1942 8.7596L21.3626 13.3742C21.4375 13.6593 21.3845 13.9182 21.2038 14.1509C21.023 14.3836 20.782 14.5 20.4807 14.5H18.5V17.6923C18.5 18.1894 18.3229 18.6149 17.9689 18.9689C17.6149 19.3229 17.1894 19.5 16.6922 19.5H14.5V21.5H13V18H16.6922C16.782 18 16.8557 17.9711 16.9134 17.9134C16.9711 17.8557 17 17.782 17 17.6923V13H19.7L18.75 9.12498C18.3666 7.60189 17.5468 6.36696 16.2904 5.42018C15.034 4.47338 13.6038 3.99998 12 3.99998C10.0666 3.99998 8.41664 4.67591 7.04998 6.02778C5.68331 7.37964 4.99997 9.02358 4.99997 10.9596C4.99997 11.958 5.20414 12.9064 5.61247 13.8049C6.02081 14.7034 6.59998 15.5021 7.34998 16.201L7.99998 16.8V21.5H6.5ZM11.2211 14.7884H12.7788L12.8904 13.7019C13.0878 13.6519 13.2727 13.5791 13.4452 13.4836C13.6176 13.3881 13.7647 13.2698 13.8865 13.1288L14.8634 13.5807L15.6423 12.2558L14.7769 11.6115C14.8487 11.4077 14.8846 11.2038 14.8846 11C14.8846 10.7961 14.8487 10.5923 14.7769 10.3884L15.6423 9.7442L14.8634 8.41923L13.8865 8.87115C13.7647 8.73012 13.6176 8.61184 13.4452 8.51633C13.2727 8.42081 13.0878 8.34805 12.8904 8.29805L12.7788 7.21153H11.2211L11.1096 8.29805C10.9122 8.34805 10.7272 8.42081 10.5548 8.51633C10.3824 8.61184 10.2352 8.73012 10.1134 8.87115L9.13653 8.41923L8.3577 9.7442L9.22308 10.3884C9.15128 10.5923 9.11538 10.7961 9.11538 11C9.11538 11.2038 9.15128 11.4077 9.22308 11.6115L8.3577 12.2558L9.13653 13.5807L10.1134 13.1288C10.2352 13.2698 10.3824 13.3881 10.5548 13.4836C10.7272 13.5791 10.9122 13.6519 11.1096 13.7019L11.2211 14.7884ZM11.9994 12.6827C11.5318 12.6827 11.1346 12.519 10.8077 12.1917C10.4807 11.8644 10.3173 11.467 10.3173 10.9994C10.3173 10.5318 10.4809 10.1346 10.8082 9.80765C11.1355 9.48073 11.533 9.31728 12.0006 9.31728C12.4681 9.31728 12.8654 9.48093 13.1923 9.80823C13.5192 10.1355 13.6827 10.533 13.6827 11.0006C13.6827 11.4681 13.519 11.8654 13.1917 12.1923C12.8644 12.5192 12.467 12.6827 11.9994 12.6827Z" fill="#1F1F1F"/>
</svg>
