<svg width="16" height="17" viewBox="0 0 16 17" fill="none" xmlns="http://www.w3.org/2000/svg">
    <path d="M8 16.2539C5.78333 16.2539 3.89583 15.4747 2.3375 13.9164C0.779167 12.3581 0 10.4706 0 8.25391C0 6.03724 0.779167 4.14974 2.3375 2.59141C3.89583 1.03307 5.78333 0.253906 8 0.253906C9.41667 0.253906 10.6583 0.541406 11.725 1.11641C12.7917 1.69141 13.7167 2.47891 14.5 3.47891V1.00391C14.5 0.78724 14.5708 0.608073 14.7125 0.466406C14.8542 0.32474 15.0333 0.253906 15.25 0.253906C15.4667 0.253906 15.6458 0.32474 15.7875 0.466406C15.9292 0.608073 16 0.78724 16 1.00391V5.85391C16 6.07057 15.9292 6.24974 15.7875 6.39141C15.6458 6.53307 15.4667 6.60391 15.25 6.60391H10.4C10.1833 6.60391 10.0042 6.53307 9.8625 6.39141C9.72083 6.24974 9.65 6.07057 9.65 5.85391C9.65 5.63724 9.72083 5.45807 9.8625 5.31641C10.0042 5.17474 10.1833 5.10391 10.4 5.10391H13.85C13.2167 4.10391 12.4083 3.29557 11.425 2.67891C10.4417 2.06224 9.3 1.75391 8 1.75391C6.18333 1.75391 4.64583 2.38307 3.3875 3.64141C2.12917 4.89974 1.5 6.43724 1.5 8.25391C1.5 10.0706 2.12917 11.6081 3.3875 12.8664C4.64583 14.1247 6.18333 14.7539 8 14.7539C9.25 14.7539 10.4167 14.4247 11.5 13.7664C12.5833 13.1081 13.3917 12.2206 13.925 11.1039C14.0083 10.9206 14.1458 10.7831 14.3375 10.6914C14.5292 10.5997 14.7167 10.5956 14.9 10.6789C15.1 10.7622 15.2333 10.8997 15.3 11.0914C15.3667 11.2831 15.3583 11.4789 15.275 11.6789C14.625 13.0789 13.6458 14.1914 12.3375 15.0164C11.0292 15.8414 9.58333 16.2539 8 16.2539Z" fill="#1F1F1F"/>
</svg>
