<svg width="16" height="17" viewBox="0 0 16 17" fill="none" xmlns="http://www.w3.org/2000/svg">
<g id="schedule_FILL1_wght500_GRAD0_opsz40 1">
<path id="Vector" d="M10.3175 11.9575L11.2043 11.0786L8.638 8.5006V5.28949H7.42858V8.98905L10.3175 11.9575ZM8.00031 15.5283C7.06754 15.5283 6.18907 15.3505 5.36491 14.9949C4.54075 14.6393 3.82198 14.1548 3.20861 13.5415C2.59526 12.9282 2.11076 12.2096 1.75513 11.3855C1.3995 10.5614 1.22168 9.68302 1.22168 8.75029C1.22168 7.81756 1.39967 6.93902 1.75565 6.11467C2.11162 5.2903 2.59602 4.57171 3.20885 3.9589C3.82166 3.34608 4.54016 2.86124 5.36436 2.50439C6.18856 2.14752 7.06709 1.96909 7.99995 1.96909C8.9328 1.96909 9.81133 2.14752 10.6355 2.50439C11.4597 2.86124 12.1782 3.34608 12.791 3.9589C13.4039 4.57171 13.8887 5.29022 14.2456 6.11442C14.6024 6.93862 14.7809 7.81715 14.7809 8.75C14.7809 9.68286 14.6024 10.5614 14.2456 11.3856C13.8887 12.2098 13.4039 12.9283 12.791 13.5411C12.1782 14.1539 11.4598 14.6383 10.6356 14.9943C9.81152 15.3503 8.93308 15.5283 8.00031 15.5283Z" fill="#777777"/>
</g>
</svg>
