<svg width="23" height="22" viewBox="0 0 23 22" fill="none" xmlns="http://www.w3.org/2000/svg">
<path d="M14.7215 7.38602L14.7215 7.386C14.9195 7.18687 15.1485 7.0911 15.4387 7.0911C15.7298 7.0911 15.9607 7.18678 16.1606 7.38548C16.3597 7.58343 16.4555 7.81246 16.4555 8.10262C16.4555 8.39382 16.3598 8.62464 16.1611 8.8245C15.9631 9.02365 15.7341 9.11941 15.4439 9.11941C15.1527 9.11941 14.9219 9.02373 14.722 8.82503C14.5229 8.62708 14.4271 8.39805 14.4271 8.10789C14.4271 7.8167 14.5228 7.58588 14.7215 7.38602ZM8.27849 8.82449L8.27846 8.82451C8.08051 9.02365 7.85148 9.11941 7.56132 9.11941C7.27015 9.11941 7.03932 9.02373 6.83943 8.82503C6.6403 8.62708 6.54454 8.39805 6.54454 8.10789C6.54454 7.81669 6.64022 7.58587 6.8389 7.38601C7.03688 7.18687 7.26592 7.0911 7.55608 7.0911C7.84726 7.0911 8.07809 7.18679 8.27797 7.38548C8.47711 7.58343 8.57287 7.81246 8.57287 8.10262C8.57287 8.39381 8.47718 8.62463 8.27849 8.82449ZM1.82522 6.90984L1.36611 6.71181L1.82522 6.90984C2.37865 5.62671 3.12726 4.51558 4.07056 3.57185C5.01389 2.62811 6.12451 1.87918 7.407 1.32554L7.20928 0.86752L7.407 1.32554C8.67977 0.776078 10.0418 0.5 11.4981 0.5C12.9544 0.5 14.3167 0.775964 15.5902 1.32522L15.7882 0.866109L15.5902 1.32522C16.8733 1.87866 17.9844 2.62726 18.9281 3.57056C19.8719 4.51389 20.6208 5.62451 21.1745 6.907C21.7239 8.17977 22 9.54177 22 10.9981C22 12.4544 21.724 13.8167 21.1748 15.0902L21.6339 15.2882L21.1748 15.0902C20.6213 16.3733 19.8727 17.4844 18.9294 18.4281C17.9861 19.3719 16.8755 20.1208 15.593 20.6745C14.3202 21.2239 12.9582 21.5 11.5019 21.5C10.0456 21.5 8.68327 21.224 7.40984 20.6748L7.21181 21.1339L7.40984 20.6748C6.12671 20.1213 5.01558 19.3727 4.07185 18.4294C3.1281 17.4861 2.37918 16.3755 1.82554 15.093L1.36648 15.2912L1.82553 15.093C1.27608 13.8202 1 12.4582 1 11.0019C1 9.54562 1.27596 8.18327 1.82522 6.90984ZM14.5334 15.5836C13.6156 16.2039 12.6086 16.5121 11.5 16.5121C10.3914 16.5121 9.38442 16.2039 8.46661 15.5836C7.8325 15.1551 7.31702 14.635 6.91538 14.0227C6.89588 13.993 6.89314 13.9724 6.89319 13.9598C6.89326 13.9451 6.89756 13.9258 6.91103 13.904C6.93857 13.8595 6.99838 13.8158 7.08701 13.8158C7.16263 13.8158 7.25598 13.8578 7.326 13.9562C7.75887 14.5644 8.29973 15.06 8.94491 15.44C9.72741 15.901 10.5823 16.1316 11.5 16.1316C12.4177 16.1316 13.2726 15.901 14.0551 15.44C14.7003 15.06 15.2411 14.5644 15.674 13.9562C15.744 13.8578 15.8374 13.8158 15.913 13.8158C16.0016 13.8158 16.0614 13.8595 16.089 13.904C16.1024 13.9258 16.1067 13.9451 16.1068 13.9598C16.1069 13.9724 16.1041 13.993 16.0846 14.0227C15.683 14.635 15.1675 15.1551 14.5334 15.5836ZM11.5 20.7632C14.2158 20.7632 16.5341 19.8151 18.4246 17.9246C20.3151 16.0341 21.2632 13.7158 21.2632 11C21.2632 8.28422 20.3151 5.96585 18.4246 4.07538C16.5341 2.1849 14.2158 1.23682 11.5 1.23682C8.78422 1.23682 6.46585 2.1849 4.57538 4.07538C2.6849 5.96585 1.73682 8.28422 1.73682 11C1.73682 13.7158 2.6849 16.0341 4.57538 17.9246C6.46585 19.8151 8.78422 20.7632 11.5 20.7632Z" stroke="#8EF198"/>
</svg>
