<svg width="23" height="22" viewBox="0 0 23 22" fill="none" xmlns="http://www.w3.org/2000/svg">
<path d="M14.7215 7.38606L14.7215 7.38603C14.9195 7.1869 15.1485 7.09113 15.4387 7.09113C15.7298 7.09113 15.9607 7.18682 16.1606 7.38551C16.3597 7.58346 16.4555 7.81249 16.4555 8.10265C16.4555 8.39385 16.3598 8.62467 16.1611 8.82453C15.9631 9.02368 15.7341 9.11944 15.4439 9.11944C15.1527 9.11944 14.9219 9.02376 14.722 8.82506C14.5229 8.62711 14.4271 8.39808 14.4271 8.10792C14.4271 7.81673 14.5228 7.58591 14.7215 7.38606ZM8.27849 8.82452L8.27847 8.82454C8.08051 9.02368 7.85148 9.11944 7.56132 9.11944C7.27015 9.11944 7.03932 9.02376 6.83943 8.82506C6.6403 8.62711 6.54454 8.39808 6.54454 8.10792C6.54454 7.81672 6.64022 7.5859 6.8389 7.38604C7.03688 7.1869 7.26592 7.09113 7.55608 7.09113C7.84726 7.09113 8.07809 7.18682 8.27797 7.38551C8.47711 7.58346 8.57287 7.81249 8.57287 8.10265C8.57287 8.39384 8.47718 8.62466 8.27849 8.82452ZM1.82554 15.093L1.36648 15.2912L1.82553 15.093C1.27608 13.8203 1 12.4583 1 11.002C1 9.54565 1.27596 8.1833 1.82522 6.90987L1.36611 6.71184L1.82522 6.90987C2.37865 5.62674 3.12726 4.51561 4.07056 3.57188C5.01389 2.62814 6.12451 1.87922 7.407 1.32557L7.20928 0.86755L7.407 1.32557C8.67977 0.776108 10.0418 0.500031 11.4981 0.500031C12.9544 0.500031 14.3167 0.775995 15.5902 1.32525L15.7878 0.867025L15.5902 1.32525C16.8733 1.87869 17.9844 2.62729 18.9281 3.57059C19.8719 4.51392 20.6208 5.62454 21.1745 6.90703C21.7239 8.1798 22 9.5418 22 10.9981C22 12.4544 21.724 13.8168 21.1748 15.0902C20.6213 16.3733 19.8727 17.4844 18.9294 18.4282C17.9861 19.3719 16.8755 20.1208 15.593 20.6745C14.3202 21.224 12.9582 21.5 11.5019 21.5C10.0456 21.5 8.68327 21.2241 7.40984 20.6748C6.12671 20.1214 5.01558 19.3728 4.07185 18.4295C3.1281 17.4861 2.37918 16.3755 1.82554 15.093ZM8.80566 14.3745C8.70057 14.3745 8.61538 14.2893 8.61538 14.1842C8.61538 14.0792 8.70057 13.994 8.80566 13.994H14.1943C14.2994 13.994 14.3846 14.0792 14.3846 14.1842C14.3846 14.2893 14.2994 14.3745 14.1943 14.3745H8.80566ZM11.5 20.7632C14.2158 20.7632 16.5341 19.8151 18.4246 17.9247C20.3151 16.0342 21.2632 13.7158 21.2632 11C21.2632 8.28425 20.3151 5.96588 18.4246 4.07541C16.5341 2.18493 14.2158 1.23685 11.5 1.23685C8.78422 1.23685 6.46585 2.18493 4.57538 4.07541C2.6849 5.96588 1.73682 8.28425 1.73682 11C1.73682 13.7158 2.6849 16.0342 4.57538 17.9247C6.46585 19.8151 8.78422 20.7632 11.5 20.7632Z" stroke="#F7C360"/>
</svg>
