<svg width="16" height="17" viewBox="0 0 16 17" fill="none" xmlns="http://www.w3.org/2000/svg">
<g id="support_agent_FILL1_wght500_GRAD0_opsz40 1">
<path id="Vector" d="M7.25753 14.8616V13.599L12.853 13.6004V8.63951C12.853 7.31225 12.3807 6.18897 11.4362 5.26966C10.4918 4.35036 9.34722 3.89071 8.00258 3.89071C6.65662 3.89071 5.51086 4.35077 4.56528 5.27089C3.61969 6.19101 3.1469 7.31477 3.1469 8.64216L3.15488 12.8217H2.61611C2.23228 12.8217 1.90391 12.6864 1.63101 12.4157C1.35812 12.1449 1.22168 11.8173 1.22168 11.4326V10.0435C1.22168 9.80822 1.28001 9.58697 1.39668 9.37972C1.51335 9.17247 1.67546 9.00463 1.88301 8.87621L1.91973 8.13902C1.99091 7.35867 2.20172 6.63387 2.55216 5.96462C2.90261 5.29538 3.3488 4.71301 3.89075 4.21752C4.4327 3.72202 5.05676 3.33452 5.76291 3.05502C6.46908 2.77551 7.21465 2.63576 7.99963 2.63576C8.78461 2.63576 9.52817 2.77551 10.2303 3.05502C10.9324 3.33452 11.5566 3.71991 12.1028 4.21117C12.6489 4.70244 13.0951 5.28292 13.4414 5.95261C13.7876 6.6223 14.0005 7.3482 14.0801 8.13032L14.1195 8.85086C14.328 8.95971 14.4903 9.11579 14.6065 9.31907C14.7227 9.52236 14.7808 9.73803 14.7808 9.96607V11.5087C14.7808 11.7455 14.7243 11.9706 14.6112 12.1842C14.498 12.3977 14.3342 12.5602 14.1195 12.6717V13.603C14.1195 13.9485 13.997 14.2447 13.7519 14.4914C13.5069 14.7382 13.2116 14.8616 12.8662 14.8616H7.25753ZM6.03818 10.0599C5.87544 10.0599 5.73955 10.005 5.63051 9.89507C5.52148 9.78519 5.46696 9.64946 5.46696 9.48789C5.46696 9.32632 5.52201 9.19121 5.63211 9.08256C5.74221 8.9739 5.87864 8.91957 6.04138 8.91957C6.20414 8.91957 6.34003 8.97437 6.44906 9.08396C6.5581 9.19355 6.61261 9.3289 6.61261 9.49001C6.61261 9.65187 6.55756 9.78732 6.44746 9.89636C6.33736 10.0054 6.20094 10.0599 6.03818 10.0599ZM9.95848 10.0599C9.79572 10.0599 9.65983 10.005 9.5508 9.89507C9.44176 9.78519 9.38725 9.64946 9.38725 9.48789C9.38725 9.32632 9.4423 9.19121 9.5524 9.08256C9.6625 8.9739 9.79893 8.91957 9.96168 8.91957C10.1244 8.91957 10.2603 8.97437 10.3693 9.08396C10.4784 9.19355 10.5329 9.3289 10.5329 9.49001C10.5329 9.65187 10.4778 9.78732 10.3677 9.89636C10.2576 10.0054 10.1212 10.0599 9.95848 10.0599ZM4.03785 8.96099C3.96716 7.8089 4.32572 6.82414 5.11355 6.00671C5.90136 5.18927 6.87371 4.78056 8.03061 4.78056C8.99687 4.78056 9.84 5.09284 10.56 5.71741C11.28 6.34196 11.7138 7.13041 11.8614 8.08274C10.8908 8.07163 9.99691 7.81275 9.17976 7.30611C8.36261 6.79946 7.72715 6.11438 7.27338 5.25086C7.08794 6.11051 6.70711 6.86675 6.13091 7.51957C5.5547 8.17239 4.85701 8.65286 4.03785 8.96099Z" fill="#777777"/>
</g>
</svg>
