<svg width="25" height="24" viewBox="0 0 25 24" fill="none" xmlns="http://www.w3.org/2000/svg">
<path d="M3.5 19.5V4.5C3.5 4.0875 3.64688 3.73438 3.94063 3.44063C4.23438 3.14688 4.5875 3 5 3H20C20.4125 3 20.7656 3.14688 21.0594 3.44063C21.3531 3.73438 21.5 4.0875 21.5 4.5V19.5C21.5 19.9125 21.3531 20.2656 21.0594 20.5594C20.7656 20.8531 20.4125 21 20 21H5C4.5875 21 4.23438 20.8531 3.94063 20.5594C3.64688 20.2656 3.5 19.9125 3.5 19.5ZM5 8.5H20V4.5H5V8.5ZM10.5 14H14.5V10H10.5V14ZM10.5 19.5H14.5V15.5H10.5V19.5ZM5 14H9V10H5V14ZM16 14H20V10H16V14ZM5 19.5H9V15.5H5V19.5ZM16 19.5H20V15.5H16V19.5Z" fill="#1F1F1F"/>
</svg>
