<svg width="35" height="35" viewBox="0 0 35 35" fill="none" xmlns="http://www.w3.org/2000/svg">
<rect width="35" height="35" rx="17.5" fill="#5479F7"/>
<path d="M17.5 17.1923C16.5346 17.1923 15.7099 16.8503 15.0259 16.1664C14.342 15.4824 14 14.6577 14 13.6924C14 12.727 14.342 11.9023 15.0259 11.2183C15.7099 10.5344 16.5346 10.1924 17.5 10.1924C18.4653 10.1924 19.29 10.5344 19.974 11.2183C20.658 11.9023 21 12.727 21 13.6924C21 14.6577 20.658 15.4824 19.974 16.1664C19.29 16.8503 18.4653 17.1923 17.5 17.1923ZM10 23.2885V22.5846C10 22.0949 10.133 21.6414 10.399 21.2241C10.6651 20.8068 11.0205 20.486 11.4654 20.2616C12.4538 19.777 13.451 19.4135 14.4567 19.1712C15.4625 18.9289 16.4769 18.8078 17.5 18.8078C18.523 18.8078 19.5375 18.9289 20.5432 19.1712C21.549 19.4135 22.5461 19.777 23.5346 20.2616C23.9794 20.486 24.3349 20.8068 24.6009 21.2241C24.8669 21.6414 25 22.0949 25 22.5846V23.2885C25 23.7103 24.8522 24.0689 24.5567 24.3644C24.2612 24.6599 23.9025 24.8077 23.4808 24.8077H11.5192C11.0974 24.8077 10.7388 24.6599 10.4433 24.3644C10.1478 24.0689 10 23.7103 10 23.2885Z" fill="white"/>
</svg>
