<svg width="10" height="11" viewBox="0 0 10 11" fill="none" xmlns="http://www.w3.org/2000/svg">
<g id="Group 464">
<path id="Path 1808" d="M5.13434 5.24439C5.46675 5.24439 5.79591 5.17891 6.10301 5.05171C6.41012 4.9245 6.68916 4.73805 6.92421 4.503C7.15926 4.26795 7.34571 3.98891 7.47291 3.6818C7.60012 3.3747 7.66559 3.04554 7.66559 2.71314C7.67081 2.38014 7.60772 2.04962 7.4802 1.74196C7.35269 1.4343 7.16347 1.15605 6.92422 0.924385C6.44961 0.450365 5.80625 0.184113 5.13547 0.184113C4.46468 0.184113 3.82133 0.450365 3.34672 0.924385C2.8727 1.399 2.60645 2.04235 2.60645 2.71314C2.60645 3.38392 2.8727 4.02728 3.34672 4.50189C3.57816 4.7412 3.85619 4.93055 4.16364 5.05826C4.4711 5.18596 4.80146 5.24931 5.13434 5.24439Z" fill="white"/>
<path id="Path 1809" d="M9.74915 7.91571C9.73133 7.67479 9.70053 7.435 9.6569 7.1974C9.61436 6.9555 9.55592 6.71667 9.48196 6.48246C9.41062 6.25921 9.31637 6.04393 9.20071 5.84008C9.09132 5.6432 8.95374 5.46337 8.79234 5.30627C8.62942 5.15357 8.43838 5.03397 8.22984 4.95414C7.99547 4.86428 7.7462 4.81962 7.49521 4.82252C7.39471 4.85153 7.30074 4.89966 7.21846 4.96427C7.07409 5.05877 6.91059 5.16414 6.72796 5.28039C6.50513 5.41549 6.26602 5.52171 6.0164 5.59652C5.44532 5.78553 4.82854 5.78553 4.25746 5.59652C4.00792 5.5215 3.76885 5.41528 3.5459 5.28039C3.36365 5.16414 3.20015 5.05877 3.0554 4.96427C2.97313 4.89966 2.87916 4.85153 2.77865 4.82252C2.52766 4.81962 2.2784 4.86428 2.04403 4.95414C1.83555 5.0341 1.64453 5.15368 1.48153 5.30627C1.32029 5.46351 1.18273 5.64333 1.07315 5.84008C0.957496 6.04393 0.863244 6.25921 0.791902 6.48246C0.718132 6.71668 0.659881 6.95551 0.617527 7.1974C0.573894 7.435 0.543099 7.67479 0.525277 7.91571C0.509902 8.13771 0.502214 8.36496 0.502214 8.59746C0.490247 8.8277 0.526886 9.05788 0.609747 9.27303C0.692608 9.48818 0.819836 9.68347 0.983152 9.84621C1.33125 10.1631 1.79093 10.3288 2.26115 10.3069H8.01328C8.48311 10.3296 8.94273 10.1649 9.29128 9.84902C9.45459 9.68629 9.58182 9.49099 9.66468 9.27584C9.74754 9.0607 9.78418 8.83051 9.77221 8.60027C9.77259 8.36627 9.7649 8.13808 9.74915 7.91571Z" fill="white"/>
</g>
</svg>
