<svg width="24" height="24" viewBox="0 0 24 24" fill="none" xmlns="http://www.w3.org/2000/svg">
<path d="M13.2743 19V17.76C14.5317 17.3867 15.559 16.67 16.3563 15.61C17.1535 14.55 17.5521 13.3467 17.5521 12C17.5521 10.6533 17.1567 9.44667 16.366 8.38C15.5752 7.31333 14.5447 6.6 13.2743 6.24V5C14.8817 5.37333 16.191 6.21 17.2021 7.51C18.2132 8.81 18.7188 10.3067 18.7188 12C18.7188 13.6933 18.2132 15.19 17.2021 16.49C16.191 17.79 14.8817 18.6267 13.2743 19ZM4.71875 14.42V9.62H7.82986L11.7188 5.62V18.42L7.82986 14.42H4.71875ZM12.8854 15.38V8.64C13.5984 8.86667 14.1655 9.29333 14.5868 9.92C15.0081 10.5467 15.2188 11.2467 15.2188 12.02C15.2188 12.78 15.0049 13.4733 14.5771 14.1C14.1493 14.7267 13.5854 15.1533 12.8854 15.38Z" fill="#1F1F1F"/>
</svg>
