<svg width="25" height="24" viewBox="0 0 25 24" fill="none" xmlns="http://www.w3.org/2000/svg">
<path d="M11.638 11.6154L18.3475 4.89625C18.5027 4.74111 18.6783 4.66355 18.8745 4.66355C19.0706 4.66355 19.2463 4.74111 19.4014 4.89625C19.5565 5.05136 19.6341 5.227 19.6341 5.42315C19.6341 5.6193 19.5565 5.79493 19.4014 5.95005L12.7072 12.6596L11.638 11.6154ZM14.036 14.0039L20.0302 7.9943C20.1854 7.83918 20.3636 7.76162 20.5648 7.76162C20.7661 7.76162 20.9443 7.83918 21.0994 7.9943C21.2546 8.14943 21.3321 8.32763 21.3321 8.5289C21.3321 8.73018 21.2546 8.90839 21.0994 9.06352L15.0956 15.0577L14.036 14.0039ZM6.15335 18.4943C4.72643 17.0674 4.01457 15.3545 4.01777 13.3558C4.02099 11.3571 4.73925 9.64111 6.17257 8.20777L9.10527 5.27507L10.3399 6.5193C10.4886 6.66801 10.6078 6.82731 10.6976 6.9972C10.7873 7.16706 10.861 7.34751 10.9187 7.53855L14.5802 3.86162C14.7354 3.70651 14.9136 3.62895 15.1148 3.62895C15.3161 3.62895 15.4943 3.70651 15.6494 3.86162C15.8046 4.01676 15.8821 4.19496 15.8821 4.39622C15.8821 4.59751 15.8046 4.77571 15.6494 4.93082L11.3148 9.26545L9.4687 11.1058L9.95332 11.5904C10.6559 12.293 10.9969 13.1359 10.9764 14.1193C10.9559 15.1026 10.5892 15.9507 9.8764 16.6635L9.78025 16.7596L8.72065 15.7058L8.8072 15.6096C9.22258 15.1943 9.4431 14.7 9.46875 14.1269C9.49438 13.5539 9.2995 13.0596 8.88412 12.6442L7.97837 11.7539C7.7976 11.5731 7.70722 11.358 7.70722 11.1087C7.70722 10.8593 7.7976 10.6443 7.97837 10.4635L9.24952 9.21737C9.48157 8.98532 9.5976 8.70616 9.5976 8.37987C9.5976 8.05357 9.48157 7.7744 9.24952 7.54235L9.10527 7.3981L7.2264 9.26737C6.08666 10.4071 5.51199 11.7693 5.50237 13.3539C5.49275 14.9385 6.05781 16.3007 7.19755 17.4404C8.3373 18.5802 9.70685 19.15 11.3062 19.15C12.9056 19.15 14.2751 18.5802 15.4149 17.4404L21.0629 11.777C21.218 11.6219 21.3962 11.5443 21.5975 11.5443C21.7988 11.5443 21.977 11.6219 22.1321 11.777C22.2873 11.9321 22.3648 12.1103 22.3648 12.3116C22.3648 12.5129 22.2873 12.6911 22.1321 12.8462L16.4591 18.4943C15.0257 19.9276 13.3081 20.6442 11.3062 20.6442C9.3043 20.6442 7.58668 19.9276 6.15335 18.4943ZM17.3014 22.4L17.2918 20.8846C18.4687 20.8846 19.4729 20.4689 20.3043 19.6375C21.1357 18.8061 21.5514 17.802 21.5514 16.625L23.0667 16.6346C23.0667 18.2308 22.5049 19.5907 21.3812 20.7144C20.2575 21.8381 18.8975 22.4 17.3014 22.4ZM2.26685 7.36545C2.26685 5.76931 2.8287 4.40939 3.95242 3.28567C5.07614 2.16196 6.43606 1.6001 8.0322 1.6001L8.04182 3.11545C6.86489 3.11545 5.86072 3.53115 5.02932 4.36257C4.1979 5.19397 3.7822 6.19814 3.7822 7.37507L2.26685 7.36545Z" fill="#1F1F1F"/>
</svg>
