<svg width="24" height="24" viewBox="0 0 24 24" fill="none" xmlns="http://www.w3.org/2000/svg">
<path d="M3.10573 20.7115C3.01086 20.7243 2.91535 20.716 2.8192 20.6865C2.72305 20.657 2.63972 20.6166 2.5692 20.5654C2.4269 20.4525 2.34773 20.3067 2.3317 20.1279C2.31568 19.949 2.35767 19.7917 2.45765 19.6558C2.62047 19.425 2.83937 19.2715 3.11435 19.1952C3.38933 19.1189 3.67811 19.0936 3.98068 19.1192C4.15246 19.0436 4.33996 19.0096 4.54318 19.0173C4.74639 19.025 4.93774 19.0128 5.11722 18.9808C5.28134 18.9385 5.39418 18.8728 5.45573 18.7837C5.51726 18.6945 5.56983 18.5769 5.61343 18.4308C5.64293 18.0833 5.67466 17.7305 5.70863 17.3721C5.74259 17.0138 5.84739 16.6808 6.02303 16.3731C6.19866 16.0398 6.42718 15.7837 6.70858 15.6049C6.98997 15.426 7.31401 15.3141 7.68068 15.2692C7.85246 15.1936 8.04252 15.1596 8.25087 15.1673C8.45921 15.175 8.65312 15.1628 8.83262 15.1307C8.99673 15.0884 9.10859 15.0228 9.16823 14.9337C9.22784 14.8446 9.27945 14.7269 9.32305 14.5808C9.35253 14.2333 9.38266 13.8805 9.41342 13.5222C9.44419 13.1638 9.54739 12.8308 9.72303 12.5231C9.89866 12.1898 10.1272 11.9337 10.4086 11.7549C10.69 11.576 11.014 11.4641 11.3807 11.4192C11.5525 11.3436 11.7425 11.3112 11.9509 11.3221C12.1592 11.333 12.3531 11.3224 12.5326 11.2904C12.6967 11.2481 12.8086 11.1808 12.8682 11.0885C12.9278 10.9962 12.9795 10.8769 13.0231 10.7308C13.0525 10.3833 13.0852 10.0305 13.1211 9.67215C13.157 9.31382 13.2628 8.98081 13.4384 8.67313C13.614 8.33979 13.8442 8.0837 14.1288 7.90485C14.4134 7.72598 14.739 7.61411 15.1057 7.56923C15.2775 7.49358 15.4675 7.4612 15.6759 7.4721C15.8842 7.483 16.0781 7.47243 16.2576 7.44038C16.4217 7.39808 16.5336 7.33078 16.5932 7.23848C16.6528 7.14616 16.7045 7.02693 16.748 6.88078C16.7775 6.53334 16.8102 6.18047 16.8461 5.82215C16.882 5.46382 16.9878 5.13081 17.1634 4.82313C17.339 4.48979 17.5692 4.2353 17.8538 4.05965C18.1384 3.884 18.464 3.77053 18.8307 3.71923C19.0025 3.64358 19.1925 3.60864 19.4009 3.61443C19.6092 3.62019 19.8031 3.60705 19.9826 3.575C20.198 3.47115 20.432 3.41763 20.6845 3.41443C20.9371 3.41123 21.157 3.43398 21.3442 3.48268C21.4929 3.56344 21.5849 3.69004 21.6201 3.86248C21.6554 4.03489 21.6294 4.19546 21.5422 4.34418C21.3794 4.57494 21.1605 4.73103 20.8855 4.81245C20.6106 4.89385 20.3218 4.92173 20.0192 4.8961C19.8474 4.97175 19.6574 5.00573 19.449 4.99803C19.2407 4.99034 19.0468 5.00252 18.8673 5.03457C18.7032 5.07687 18.5913 5.14418 18.5317 5.23648C18.4721 5.32879 18.4205 5.44803 18.3769 5.59418C18.3474 5.94161 18.3147 6.29448 18.2788 6.6528C18.2429 7.01113 18.1371 7.34414 17.9615 7.65182C17.7859 7.98516 17.5557 8.24125 17.2711 8.4201C16.9865 8.59897 16.6609 8.71084 16.2942 8.75573C16.1224 8.83138 15.9349 8.86375 15.7317 8.85285C15.5285 8.84195 15.3372 8.85253 15.1577 8.88457C14.9936 8.92688 14.8807 8.99418 14.8192 9.08648C14.7576 9.17879 14.7051 9.29803 14.6615 9.44418C14.632 9.79161 14.6002 10.1445 14.5663 10.5028C14.5323 10.8611 14.4275 11.1941 14.2519 11.5018C14.0762 11.8249 13.8493 12.0784 13.5711 12.2624C13.2929 12.4464 12.9705 12.5608 12.6039 12.6057C12.4256 12.6814 12.2349 12.7163 12.0317 12.7105C11.8285 12.7048 11.6372 12.7179 11.4577 12.75C11.3 12.7923 11.1871 12.8602 11.1192 12.9538C11.0512 13.0474 10.9987 13.164 10.9615 13.3038C10.9384 13.6448 10.9083 13.9945 10.8711 14.3528C10.8339 14.7111 10.7275 15.0441 10.5519 15.3518C10.3762 15.6852 10.1452 15.9413 9.85862 16.1201C9.57211 16.299 9.24552 16.4108 8.87885 16.4557C8.70705 16.5314 8.51794 16.5679 8.31152 16.5654C8.10511 16.5628 7.91216 16.5775 7.73268 16.6096C7.57498 16.6519 7.46631 16.7166 7.40668 16.8038C7.34706 16.891 7.29545 17.0076 7.25185 17.1538C7.22877 17.4948 7.19768 17.8445 7.15858 18.2028C7.11948 18.5611 7.01211 18.8941 6.83647 19.2018C6.66086 19.5352 6.43074 19.7913 6.14613 19.9701C5.86153 20.149 5.53589 20.2608 5.16922 20.3057C4.99744 20.3814 4.80994 20.4179 4.60672 20.4153C4.40351 20.4128 4.21216 20.4275 4.03268 20.4596C3.87498 20.5019 3.7176 20.5384 3.56055 20.5692C3.40348 20.5999 3.25188 20.6474 3.10573 20.7115ZM5.99995 10.5C4.75765 10.5 3.69708 10.0605 2.81825 9.18168C1.93942 8.30284 1.5 7.24228 1.5 5.99998C1.5 4.74101 1.93942 3.67628 2.81825 2.80578C3.69708 1.93526 4.75765 1.5 5.99995 1.5C7.25892 1.5 8.32365 1.93526 9.19415 2.80578C10.0647 3.67628 10.4999 4.74101 10.4999 5.99998C10.4999 7.24228 10.0647 8.30284 9.19415 9.18168C8.32365 10.0605 7.25892 10.5 5.99995 10.5ZM5.99995 8.99998C6.84995 8.99998 7.56245 8.70831 8.13745 8.12498C8.71245 7.54164 8.99995 6.83331 8.99995 5.99998C8.99995 5.14998 8.71245 4.43748 8.13745 3.86248C7.56245 3.28748 6.84995 2.99998 5.99995 2.99998C5.16662 2.99998 4.45828 3.28748 3.87495 3.86248C3.29162 4.43748 2.99995 5.14998 2.99995 5.99998C2.99995 6.83331 3.29162 7.54164 3.87495 8.12498C4.45828 8.70831 5.16662 8.99998 5.99995 8.99998ZM16.3077 22.5C15.809 22.5 15.383 22.3233 15.0298 21.9701C14.6766 21.6169 14.5 21.191 14.5 20.6923V16.3077C14.5 15.809 14.6766 15.383 15.0298 15.0298C15.383 14.6766 15.809 14.5 16.3077 14.5H20.6922C21.1909 14.5 21.6169 14.6766 21.9701 15.0298C22.3233 15.383 22.4999 15.809 22.4999 16.3077V20.6923C22.4999 21.191 22.3233 21.6169 21.9701 21.9701C21.6169 22.3234 21.1909 22.5 20.6922 22.5L16.3077 22.5ZM16.3077 21H20.6922C20.782 21 20.8557 20.9711 20.9134 20.9134C20.9711 20.8557 21 20.782 21 20.6923V16.3077C21 16.2179 20.9711 16.1442 20.9134 16.0865C20.8557 16.0288 20.782 16 20.6922 16H16.3077C16.2179 16 16.1442 16.0288 16.0865 16.0865C16.0288 16.1442 15.9999 16.2179 15.9999 16.3077V20.6923C15.9999 20.782 16.0288 20.8557 16.0865 20.9134C16.1442 20.9711 16.2179 21 16.3077 21Z" fill="#1F1F1F"/>
</svg>
