<svg width="17" height="20" viewBox="0 0 17 20" fill="none" xmlns="http://www.w3.org/2000/svg">
<path d="M4.5 17C4.1 17 3.75 16.85 3.45 16.55C3.15 16.25 3 15.9 3 15.5V1.5C3 1.1 3.15 0.75 3.45 0.45C3.75 0.15 4.1 0 4.5 0H15.5C15.9 0 16.25 0.15 16.55 0.45C16.85 0.75 17 1.1 17 1.5V15.5C17 15.9 16.85 16.25 16.55 16.55C16.25 16.85 15.9 17 15.5 17H4.5ZM4.5 15.5H15.5V1.5H4.5V15.5ZM1.5 20C1.1 20 0.75 19.85 0.45 19.55C0.15 19.25 0 18.9 0 18.5V3.75C0 3.5375 0.0723331 3.35933 0.217 3.2155C0.3615 3.07183 0.540667 3 0.7545 3C0.968167 3 1.14583 3.07183 1.2875 3.2155C1.42917 3.35933 1.5 3.5375 1.5 3.75V18.5H13.25C13.4625 18.5 13.6407 18.5723 13.7845 18.717C13.9282 18.8615 14 19.0407 14 19.2545C14 19.4682 13.9282 19.6458 13.7845 19.7875C13.6407 19.9292 13.4625 20 13.25 20H1.5Z" fill="#1F1F1F"/>
</svg>
